<?xml version="1.0" standalone="no"?>
<!DOCTYPE svg PUBLIC "-//W3C//DTD SVG 1.1//EN" "http://www.w3.org/Graphics/SVG/1.1/DTD/svg11.dtd" >
<svg xmlns="http://www.w3.org/2000/svg">
<metadata></metadata>
<defs>
<font id="pf_din_text_cond_proMdIt" horiz-adv-x="952" >
<font-face units-per-em="2048" ascent="1536" descent="-512" />
<missing-glyph horiz-adv-x="462" />
<glyph unicode="&#xfb01;" horiz-adv-x="976" d="M0 -309l219 1143h-106l37 178h104l31 157q18 92 56 156t90 103.5t117.5 58t139.5 18.5q98 0 182 -30.5t138 -96.5l-144 -161q-68 80 -186 79q-43 0 -74 -13t-51.5 -33.5t-31.5 -46t-15 -50.5l-27 -141h496l-197 -1012h-223l162 834h-273l-221 -1143h-223z" />
<glyph unicode="&#xfb02;" horiz-adv-x="1013" d="M0 -309l219 1143h-106l37 178h104l31 153q31 170 138 254t259 84q78 -4 174 -18.5t203 -59.5l-219 -1118q-10 -47 2 -77.5t71 -30.5h33l-39 -203h-65q-104 0 -171 42t-71 142q0 23 2 46t6 50q49 250 98.5 499t100.5 499q-31 12 -66.5 17t-60.5 5q-88 0 -127 -45t-49 -100 l-27 -139h178q-10 -45 -18 -89t-16 -89h-179l-219 -1143h-223z" />
<glyph horiz-adv-x="0" />
<glyph horiz-adv-x="682" />
<glyph unicode=" "  horiz-adv-x="462" />
<glyph unicode="&#x09;" horiz-adv-x="462" />
<glyph unicode="&#xa0;" horiz-adv-x="462" />
<glyph unicode="!" horiz-adv-x="530" d="M70 0l45 227h227l-45 -227h-227zM166 383l182 1042h223l-221 -1042h-184z" />
<glyph unicode="&#x22;" horiz-adv-x="651" d="M209 993l84 432h174l-86 -432h-172zM487 993l84 432h172l-84 -432h-172z" />
<glyph unicode="#" d="M20 0l154 434h-147l28 156h174l93 256h-150l31 155h172l151 424h168l-151 -424h182l152 424h167l-153 -424h156l-29 -155h-180l-93 -256h158l-31 -156h-182l-151 -434h-170l153 434h-180l-154 -434h-168zM397 590h181l92 256h-183q-23 -66 -45 -129.5t-45 -126.5z" />
<glyph unicode="$" d="M27 264l198 103q23 -59 61 -101.5t105 -52.5l80 408q-133 55 -207 134t-74 197q0 104 32 189.5t89.5 148t138 99t179.5 41.5l28 149h93l-31 -152q123 -12 198.5 -84.5t100.5 -168.5l-191 -111q-23 55 -58.5 93t-92.5 48l-72 -368q76 -31 132.5 -65t93 -76t55 -95 t18.5 -123q-2 -111 -34.5 -200t-93 -151.5t-146.5 -98t-191 -37.5q-10 -47 -18 -96.5t-19 -96.5h-92q2 12 8.5 39t12.5 57.5t11 58.5t7 40q-129 12 -205.5 87t-115.5 185zM434 999q0 -76 86 -122l64 327q-35 -8 -61.5 -28.5t-46 -48t-30 -61.5t-12.5 -67zM483 213 q86 16 129 83t43 157q0 47 -28.5 78.5t-71.5 54.5z" />
<glyph unicode="%" horiz-adv-x="1454" d="M162 815l78 391q20 106 88.5 167t177.5 61q53 0 98 -17.5t77 -49.5t46 -77t4 -98l-74 -399q-23 -106 -86 -167t-180 -61q-57 0 -104 18.5t-79 51.5t-44 79t-2 101zM180 -35l1047 1495h166l-1049 -1495h-164zM330 805q-6 -35 11 -61.5t58 -26.5q39 0 59.5 23.5t26.5 54.5 l76 397q8 35 -10.5 62.5t-56.5 27.5q-35 0 -58.5 -21.5t-29.5 -56.5zM846 242l78 391q20 106 88.5 166.5t177.5 60.5q53 0 98 -17.5t77 -49t46 -76.5t4 -99l-74 -399q-23 -106 -86 -166.5t-180 -60.5q-57 0 -104 18.5t-79 51t-44 78.5t-2 102zM1014 231q-6 -35 11 -61.5 t58 -26.5q39 0 59.5 23.5t26.5 54.5l76 397q8 35 -10 63t-57 28q-35 0 -58.5 -21.5t-29.5 -56.5z" />
<glyph unicode="&#x26;" horiz-adv-x="1110" d="M78 299q0 145 82 263t225 214q-23 61 -49.5 134t-26.5 165q0 78 26.5 144.5t76 114.5t120 75t156.5 27q98 0 180 -38t129 -128l-163 -125q-33 53 -74 71.5t-88 18.5q-33 0 -58.5 -14.5t-44 -36t-29 -50t-10.5 -55.5q0 -45 23 -108q10 -43 35.5 -105.5t56.5 -132 t63.5 -140.5t57.5 -126q27 41 46 93t34 99l192 -18q-25 -90 -70.5 -190.5t-105.5 -178.5l131 -272h-250q-14 27 -26 53.5t-27 55.5q-80 -68 -156.5 -94.5t-160.5 -26.5q-145 0 -220 87t-75 224zM293 324q0 -59 31.5 -98.5t97.5 -39.5q49 0 102.5 25t89.5 59l-149 332 q-172 -129 -172 -278z" />
<glyph unicode="'" horiz-adv-x="446" d="M246 993l84 432h174l-84 -432h-174z" />
<glyph unicode="(" horiz-adv-x="595" d="M123 408q0 156 44 307t115.5 291.5t167 263.5t197.5 225l117 -74q-94 -113 -172 -237.5t-133.5 -257.5t-86 -274.5t-30.5 -284.5q0 -141 28.5 -276.5t84.5 -254.5l-136 -86q-88 141 -142 308t-54 350z" />
<glyph unicode=")" horiz-adv-x="595" d="M-39 -164q88 106 165 229t134 257.5t89 275.5t32 283q0 139 -27.5 278t-85.5 262l144 74q84 -137 136 -297t52 -342q0 -160 -43 -313.5t-116.5 -293.5t-171 -266t-206.5 -233z" />
<glyph unicode="*" horiz-adv-x="804" d="M201 1114q2 4 13 27.5t25.5 51.5t27 51.5t14.5 27.5l204 -92l27 245h168l-72 -245q8 2 43 15t77 29.5t77 30t43 17.5q0 -4 3 -27.5t7 -51.5t8 -51.5t4 -27.5l-245 -59l123 -189q-4 -4 -27 -18t-50.5 -31.5t-51 -33t-27.5 -17.5l-84 211l-170 -211l-117 98l197 191z" />
<glyph unicode="+" d="M55 516l37 180h346l68 353h182l-67 -353h344l-35 -180h-344l-70 -354h-182l67 354h-346z" />
<glyph unicode="," horiz-adv-x="499" d="M-23 -274l119 268h-59l53 270h252l-51 -262l-189 -276h-125z" />
<glyph unicode="-" horiz-adv-x="794" d="M106 455l39 202h607l-39 -202h-607z" />
<glyph unicode="." horiz-adv-x="489" d="M16 0l50 266h253l-51 -266h-252z" />
<glyph unicode="/" horiz-adv-x="630" d="M-115 -86l752 1571h178l-756 -1571h-174z" />
<glyph unicode="0" d="M77.5 218q-18.5 75 0.5 173l135 686q35 172 136.5 265.5t268.5 93.5q74 0 140.5 -26t113 -73t66.5 -116.5t4 -157.5l-135 -717q-14 -80 -45 -145.5t-80 -112.5t-118.5 -72.5t-160.5 -25.5q-80 0 -147.5 25.5t-113.5 76.5t-64.5 126zM305 379q-14 -80 15.5 -127t105.5 -47 q70 0 106.5 42t47.5 101l137 715q14 72 -24 115t-99 43q-63 0 -103 -38t-53 -106z" />
<glyph unicode="1" d="M305 0l227 1171l-223 -147l47 244l240 157h211l-277 -1425h-225z" />
<glyph unicode="2" d="M6 0l39 203l592 684q45 53 66.5 110.5t21.5 104.5t-28.5 83t-90.5 36q-57 0 -108.5 -45.5t-73.5 -147.5l-217 39q41 182 157.5 275.5t268.5 93.5q147 0 238.5 -74t91.5 -221q0 -111 -46.5 -200t-111.5 -169l-475 -555h446l-43 -217h-727z" />
<glyph unicode="3" d="M18 334l224 31q0 -6 -1 -12.5t-1 -12.5q0 -59 31.5 -96t93.5 -37q53 0 92 23.5t63.5 63.5t35.5 92t11 110q0 61 -37.5 105t-107.5 44h-88l37 186h92q100 0 156.5 77t56.5 188q0 20 -7 41.5t-21.5 40t-37 30t-55.5 11.5q-51 0 -104.5 -39t-71.5 -131l-217 34 q41 180 154.5 266.5t263.5 86.5q94 0 156.5 -28t100 -74t53 -106.5t15.5 -127.5q-4 -51 -16 -104.5t-38 -101.5t-66 -88t-97 -67q0 -2 -1 -3t-1 -3q66 -31 89.5 -92t23.5 -117q0 -96 -24.5 -192t-78 -173t-137.5 -124t-205 -47q-74 0 -135 19.5t-105 61.5t-70 107.5 t-26 157.5z" />
<glyph unicode="4" d="M27 209l36 197l584 1019h236l-574 -1005h258l68 362h223l-70 -362h103l-41 -211h-102l-41 -209h-222l41 209h-499z" />
<glyph unicode="5" d="M76 336l223 29q-2 -10 -2 -17.5v-15.5q0 -129 121 -129q61 0 103 46t67.5 112.5t36 140t10.5 127.5q0 51 -21.5 85t-81.5 34q-45 0 -91 -20.5t-81 -74.5h-200q39 193 76.5 385.5t74.5 386.5h688l-43 -215h-477l-61 -319q2 0 2 -1t2 -1q47 35 98 50t98 15q68 0 116 -19.5 t78 -53t43 -79.5t13 -100q0 -147 -25.5 -277t-81.5 -227.5t-146.5 -153.5t-219.5 -56q-72 0 -130 24.5t-100 69.5t-65.5 109.5t-23.5 144.5z" />
<glyph unicode="6" d="M82 303q0 92 32.5 206t94.5 210q117 178 228.5 353t228.5 353h243q-121 -193 -214 -338t-171 -266q0 -4 4 -4q49 23 103 23q57 0 99 -20.5t69.5 -57.5t41 -86t13.5 -107q0 -66 -19.5 -158t-60.5 -178q-53 -117 -149.5 -180t-231.5 -63q-82 0 -141 23.5t-97 65.5 t-55.5 99.5t-17.5 124.5zM313 332q0 -53 22.5 -92t90.5 -39q53 0 90 32.5t57 83.5q25 61 36.5 120t11.5 93q0 53 -26 88t-87 35q-57 0 -95 -35.5t-59 -85.5q-20 -45 -30.5 -99t-10.5 -101z" />
<glyph unicode="7" d="M63 0l652 1210h-275l-34 -178h-213l75 393h733l-38 -200l-666 -1225h-234z" />
<glyph unicode="8" d="M59 287q0 45 8.5 111.5t32 134t67.5 125t118 83.5q-45 31 -68.5 82t-23.5 107q0 49 9 103t31 120q43 129 143.5 206t254.5 77q143 0 230 -79t87 -214q0 -49 -11 -108.5t-37 -117t-65.5 -104.5t-99.5 -70q59 -35 83 -95t24 -120q0 -74 -19.5 -160.5t-58.5 -158.5 q-53 -98 -145.5 -158.5t-227.5 -60.5q-68 0 -128 18.5t-105 56t-72 93t-27 129.5zM285 354q0 -25 4 -53.5t17 -51t39 -37.5t67 -15q59 0 94 30.5t55 65.5q29 47 41 105.5t14 97.5q0 61 -25 106t-99 45q-57 0 -97.5 -31.5t-65 -77.5t-34.5 -96.5t-10 -87.5zM418 942 q0 -47 29.5 -74.5t76.5 -27.5q72 0 114 45t62 110q18 51 19 113q0 51 -28 85t-87 34q-37 0 -63.5 -12.5t-45 -33t-31.5 -47t-24 -57.5q-10 -35 -16 -69.5t-6 -65.5z" />
<glyph unicode="9" d="M96 0q121 193 214 338t171 266q0 4 -4 4q-49 -23 -102 -22q-57 0 -99.5 20.5t-70 57t-40.5 86t-13 106.5q0 66 19 158t60 178q53 117 149.5 180.5t231.5 63.5q82 0 141.5 -23.5t97.5 -65.5t55.5 -99.5t17.5 -125.5q0 -92 -33 -205.5t-94 -209.5q-117 -178 -228.5 -353.5 t-228.5 -353.5h-244zM385 895q0 -53 26 -88t87 -35q57 0 95 36t58 85q20 45 30.5 99.5t10.5 101.5q0 53 -22.5 92t-89.5 39q-53 0 -90 -33t-58 -84q-25 -61 -36 -119.5t-11 -93.5z" />
<glyph unicode=":" horiz-adv-x="491" d="M35 0l51 266h252l-51 -266h-252zM145 569l52 267h252l-52 -267h-252z" />
<glyph unicode=";" horiz-adv-x="493" d="M-23 -274l119 268h-59l53 270h252l-51 -262l-187 -276h-127zM150 569l51 267h252l-52 -267h-251z" />
<glyph unicode="&#x3c;" d="M66 526l32 164l934 410l-41 -215l-682 -285l570 -287l-39 -196z" />
<glyph unicode="=" d="M18 326l37 180h875l-37 -180h-875zM94 711l35 182h875l-35 -182h-875z" />
<glyph unicode="&#x3e;" d="M-10 117l39 219l680 285l-570 284l41 195l774 -410l-30 -164z" />
<glyph unicode="?" horiz-adv-x="894" d="M162 1053q41 199 152.5 291t293.5 92q156 0 253 -84t97 -230q0 -66 -12 -115t-33.5 -88.5t-51.5 -75.5t-62 -73q-39 -47 -74 -83t-63.5 -69.5t-49 -68.5t-30.5 -76l-21 -92h-225q16 111 47 193.5t90 148.5q47 61 90 105t75 84t50.5 81t18.5 97q0 59 -34 91.5t-100 32.5 q-72 0 -124 -49t-64 -147q-57 10 -112.5 18t-110.5 17zM262 0q10 57 21.5 113.5t23.5 113.5h225q-12 -57 -23 -113.5t-22 -113.5h-225z" />
<glyph unicode="@" horiz-adv-x="1699" d="M152 537q0 195 61 364.5t175 294.5t273.5 196.5t358.5 71.5q147 0 263 -43t193.5 -119.5t118.5 -183t41 -233.5q0 -150 -37.5 -266.5t-101 -196.5t-145.5 -122t-170 -42q-25 0 -56.5 6t-60.5 20.5t-52.5 37t-31.5 55.5h-6q-31 -43 -88.5 -78t-126.5 -35 q-104 0 -162.5 59.5t-58.5 157.5q0 43 4 91.5t13 99.5t22.5 100t29.5 92q18 49 42 91t57.5 73t77.5 48.5t102 17.5q39 0 84 -18.5t73 -59.5q2 0 5 2l14 67h182l-112 -575q-2 -8 -3 -25q0 -68 70 -67q55 0 104.5 33.5t86 95t58 146.5t21.5 188q0 100 -32.5 180t-93 136 t-144.5 87t-186 31q-164 0 -292 -63.5t-217 -169t-136 -243t-47 -284.5q0 -240 126.5 -373t372.5 -133q109 0 205 22.5t201 71.5q10 -35 20 -71.5t23 -71.5q-117 -47 -230.5 -72.5t-236.5 -25.5q-150 0 -270.5 42t-204.5 121.5t-130 198.5t-46 273zM731 553q-2 -45 16.5 -79 t75.5 -34q55 0 92 47q20 27 38 72t28 93t16.5 93.5t6.5 73.5q0 43 -21.5 71t-69.5 28q-35 0 -64.5 -16.5t-49.5 -55.5q-31 -72 -46.5 -143.5t-21.5 -149.5z" />
<glyph unicode="A" horiz-adv-x="1064" d="M-72 0l686 1425h224l131 -1425h-242l-16 307h-394l-141 -307h-248zM410 516h288l-14 285l-12 305h-8l-125 -301z" />
<glyph unicode="B" horiz-adv-x="1060" d="M43 0q12 59 33.5 172t49.5 251t57.5 289.5t56 290t48 251t34.5 171.5h403q172 0 264 -77.5t92 -233.5q0 -141 -58 -234.5t-179 -134.5q0 -2 -1 -3t-1 -5q80 -29 113.5 -99.5t33.5 -158.5q-4 -133 -50 -225t-121 -148.5t-171 -81t-201 -24.5h-403zM315 215h205 q57 0 102.5 23.5t75 61.5t45 87t15.5 100q0 72 -42 111t-120 39h-197zM438 840h158q53 0 100 15t82 45t55.5 74t20.5 101q0 72 -45 104.5t-123 32.5h-174z" />
<glyph unicode="C" horiz-adv-x="1007" d="M94 346q0 33 4 69t11 74q4 25 8 48.5t8 46.5q16 78 32.5 159.5t30.5 159.5q20 100 53 196.5t89.5 171.5t143.5 120t214 45q182 0 280.5 -95.5t108.5 -242.5q-57 -16 -113.5 -32.5t-113.5 -33.5q-4 76 -47 129t-125 53q-66 0 -109 -25.5t-70.5 -67.5t-44 -94t-28.5 -105 q-25 -106 -43 -215t-41 -218q-6 -35 -10 -65.5t-4 -63.5q0 -66 32.5 -109.5t128.5 -43.5q82 0 143.5 48t90.5 138q55 -16 111.5 -33.5t111.5 -35.5q-49 -150 -164.5 -243t-300.5 -93q-104 0 -178 27.5t-120 74.5t-67.5 112.5t-21.5 143.5z" />
<glyph unicode="D" horiz-adv-x="1093" d="M45 0l277 1425h415q164 0 262.5 -79.5t98.5 -245.5q0 -68 -11.5 -160t-29.5 -197q-31 -174 -61.5 -306t-69.5 -201q-39 -70 -87 -115t-104.5 -71.5t-119 -38t-130.5 -11.5h-440zM317 215h168q70 0 119 18.5t82 52t51.5 82t30.5 109.5q16 82 31.5 162t31.5 162 q4 29 11.5 59.5t11.5 59.5q4 33 8 60.5t4 47.5q0 82 -39 131t-149 49h-166z" />
<glyph unicode="E" horiz-adv-x="956" d="M45 0l277 1425h784l-43 -217h-551l-76 -381h475l-41 -213h-475l-76 -397h551l-41 -217h-784z" />
<glyph unicode="F" horiz-adv-x="937" d="M45 0l277 1425h784l-43 -217h-551l-76 -387h475l-43 -213h-473l-119 -608h-231z" />
<glyph unicode="G" horiz-adv-x="1058" d="M89 356q1 33 6 71t11.5 78t12.5 73l63 325q20 100 53 196.5t89.5 171.5t143.5 120t214 45q182 0 280.5 -95.5t108.5 -242.5q-57 -16 -113.5 -32.5t-113.5 -33.5q-4 76 -47 129t-125 53q-66 0 -109 -26.5t-70.5 -68.5t-44 -94t-28.5 -103q-18 -96 -36.5 -191.5 t-39.5 -193.5q-8 -45 -15 -89.5t-7 -87.5q0 -66 33.5 -109.5t131.5 -43.5q63 0 107.5 25.5t75 66.5t50 92t30.5 105l16 82h-211q10 51 19.5 100t19.5 100h442q-14 -76 -26.5 -150.5t-28.5 -150.5q-23 -106 -61.5 -196.5t-100 -155t-148.5 -101t-206 -36.5q-92 0 -160.5 23.5 t-115 64.5t-71 98t-28.5 125q-1 15 -1 35v22z" />
<glyph unicode="H" horiz-adv-x="1112" d="M45 0l277 1425h231l-117 -598h398l116 598h230l-277 -1425h-231l121 616h-398l-119 -616h-231z" />
<glyph unicode="I" horiz-adv-x="491" d="M45 0l279 1425h231l-276 -1425h-234z" />
<glyph unicode="J" horiz-adv-x="851" d="M-47 160l178 135q25 -41 65 -66.5t87 -25.5q168 0 206 194l201 1028h232l-203 -1036q-41 -209 -147.5 -304t-292.5 -95q-104 0 -189.5 42t-136.5 128z" />
<glyph unicode="K" horiz-adv-x="1081" d="M43 0l279 1425h229l-117 -612q4 0 8 -2q63 76 123 148.5t125 144.5q25 27 67 76t85 100t78.5 92t48.5 53h266l-490 -579l254 -846h-243l-189 643l-215 -240l-78 -403h-231z" />
<glyph unicode="L" horiz-adv-x="933" d="M45 0l277 1425h231l-234 -1206h543l-41 -219h-776z" />
<glyph unicode="M" horiz-adv-x="1355" d="M41 0l276 1425h220q27 -135 57.5 -269t56.5 -269l62 -283h8l201 344l288 477h226l-277 -1425h-231l162 831q-2 0 -4.5 1.5t-4.5 1.5q-27 -47 -52 -91.5t-54 -89.5q-59 -100 -119.5 -199.5t-124.5 -197.5h-164l-86 383l-39 195h-8l-162 -834h-231z" />
<glyph unicode="N" horiz-adv-x="1171" d="M41 0l278 1425h211l238 -745q18 -55 34.5 -107.5t26.5 -93.5h9l178 946h229l-276 -1425h-209q-41 121 -81 239.5t-81 239.5l-141 451h-6l-179 -930h-231z" />
<glyph unicode="O" horiz-adv-x="1056" d="M94 291q-5 35 -5 72q0 55 11 112l103 520q14 76 47 154t89 141.5t141 104.5t206 41q113 0 194 -40t128 -105.5t62 -148.5q7 -40 8 -81q0 -44 -9 -88l-100 -541q-41 -211 -152.5 -327.5t-312.5 -116.5q-129 0 -215 40t-134.5 107.5t-60.5 155.5zM328 360q4 -46 24.5 -79 t59.5 -51.5t98 -18.5q86 0 143.5 54t75.5 149l111 577q4 16 4 36q0 13 -2 29q-4 38 -23.5 72.5t-58.5 58t-103 23.5q-57 0 -96 -21.5t-64.5 -53t-40 -68.5t-20.5 -70l-102 -538q-7 -38 -7 -72q0 -14 1 -27z" />
<glyph unicode="P" horiz-adv-x="1015" d="M45 0l277 1425h413q172 0 269.5 -82.5t97.5 -250.5q0 -123 -35 -224.5t-99.5 -172t-158.5 -109.5t-211 -39h-215l-107 -547h-231zM426 766h192q111 0 181.5 72.5t70.5 205.5q0 164 -180 164h-178z" />
<glyph unicode="Q" horiz-adv-x="1060" d="M90 373q2 35 4 71.5t10 75.5q23 119 46.5 233.5t50.5 229.5q20 88 55 170t91 145.5t138 100.5t199 37q94 0 167 -29t124 -78t77 -115q23 -62 23 -132v-11q-4 -143 -39 -303t-63 -305q-4 -23 -12.5 -54.5t-18.5 -66.5t-24.5 -70.5t-30.5 -64.5l119 -113l-142 -145 l-112 106q-101 -67 -255 -67h-5q-111 0 -187 29.5t-124 82t-69.5 123t-21.5 150.5zM322 387q2 -80 41.5 -129t138.5 -49q59 0 96 20q-29 29 -55.5 56.5t-48.5 50.5l116 119q23 -25 47.5 -48.5t49.5 -46.5v2q8 14 14 39q10 41 19.5 84t19.5 86q10 55 24.5 119t26.5 126.5 t20.5 118.5t8.5 95q0 35 -10.5 67.5t-32 58.5t-56.5 41t-84 15q-47 0 -80.5 -14t-57 -36.5t-40 -51.5t-24.5 -57q-18 -63 -37 -143.5t-36 -163t-31.5 -160.5t-22.5 -140q-6 -37 -6 -59z" />
<glyph unicode="R" horiz-adv-x="1069" d="M45 0l277 1425h434q172 0 264 -90q85 -83 85 -240q0 -14 -1 -28q-6 -174 -87 -280.5t-216 -153.5l145 -633h-252l-123 594h-180l-115 -594h-231zM432 805h203q98 0 168 60t74 179q1 10 1 19q0 73 -42 109q-48 40 -134 40h-190z" />
<glyph unicode="S" horiz-adv-x="1019" d="M33 242l205 129q35 -72 93 -115t150 -43q59 0 103.5 18.5t73 49t43 70.5t14.5 81q0 78 -51.5 117t-145.5 67q-164 53 -239.5 132t-75.5 208q0 109 33.5 197t96 151.5t150.5 97.5t197 34q156 0 252 -64.5t137 -163.5l-199 -137q-78 135 -221 135q-90 0 -143 -59.5 t-53 -138.5q0 -43 17 -71t50 -48.5t78 -36.5t98 -35q154 -53 215.5 -135t61.5 -205q0 -111 -35 -201t-101.5 -154.5t-160.5 -99t-211 -34.5q-176 0 -280.5 71.5t-151.5 182.5z" />
<glyph unicode="T" horiz-adv-x="872" d="M160 1212l43 213h852l-41 -213h-309l-238 -1212h-231l235 1212h-311z" />
<glyph unicode="U" horiz-adv-x="1083" d="M112 262q-7 37 -7 77q0 49 10 101q6 37 21.5 116t33.5 177t39.5 207t40 206t33 172t20.5 107h232q-6 -31 -20.5 -105.5t-34 -172.5t-41 -208t-40 -208t-34 -176t-21.5 -111q-6 -34 -5 -65v-23q3 -41 21.5 -71.5t51 -49t84.5 -18.5q115 0 173 69.5t81 180.5q2 14 16 87 t33.5 175t42 218t43 218.5t34 174t17.5 85.5h233q-8 -39 -22 -115.5t-32.5 -172t-39 -198.5t-39 -198.5t-34 -171t-21.5 -114.5q-20 -104 -59 -190.5t-100.5 -148t-145.5 -94t-191 -32.5q-109 0 -186.5 34.5t-124 95t-62.5 142.5z" />
<glyph unicode="V" horiz-adv-x="1009" d="M209 1425h244l26 -641q0 -12 2 -70.5t4 -126t3 -127.5v-34q0 -30 -1 -41h11q4 8 16 39t29.5 73t37 90t37 90t29.5 72.5t17 38.5l272 637h250l-654 -1425h-227z" />
<glyph unicode="W" horiz-adv-x="1468" d="M217 1425h246l-10 -479q-4 -111 -6.5 -222.5t-8.5 -221.5h8l144 346l239 577h193q4 -193 12 -379t8 -378q2 -45 3.5 -89t1.5 -90h10l102 302q18 51 45 126.5t57.5 161.5t63.5 176.5t61 169.5h250l-565 -1425h-209q-8 147 -10 296.5t-10 297.5q-4 82 -6 163t-5 163h-8 q-41 -94 -78.5 -187.5t-76.5 -187.5l-234 -545h-207q-4 356 -6 711.5t-4 713.5z" />
<glyph unicode="X" horiz-adv-x="1003" d="M-74 0q129 186 257 368.5t257 368.5q-53 174 -106 344t-107 344h254l117 -454h6l295 454h268q-121 -174 -240.5 -344t-242.5 -344q59 -186 116.5 -368.5t114.5 -368.5h-256q-33 127 -64.5 252t-66.5 252l-53 -72q-8 -12 -30.5 -46t-50 -77t-60.5 -92t-60.5 -93t-50 -78 t-30.5 -46h-267z" />
<glyph unicode="Y" horiz-adv-x="964" d="M207 1425h237q4 -18 15.5 -73.5t24 -119t22.5 -117.5t14 -73q10 -49 18.5 -111.5t14.5 -109.5h12q35 66 71 134.5t73 134.5q14 25 39.5 70.5t54 97t54.5 97.5t40 70h250q-23 -37 -64 -102.5t-91 -147t-105.5 -171t-105.5 -171t-91 -148.5t-63 -101l-115 -584h-225 q4 25 13 71t20.5 102t23.5 118.5t23.5 119t19.5 102.5t14 71q-47 211 -97 420.5t-97 420.5z" />
<glyph unicode="Z" horiz-adv-x="878" d="M-31 0l41 209l709 1003h-492l41 213h754l-39 -198l-709 -1010h512l-41 -217h-776z" />
<glyph unicode="[" horiz-adv-x="530" d="M10 -205l320 1635h362l-33 -160h-157l-256 -1317h157l-28 -158h-365z" />
<glyph unicode="\" horiz-adv-x="608" d="M186 1473h176q33 -387 64 -770.5t61 -770.5h-176z" />
<glyph unicode="]" horiz-adv-x="530" d="M-78 -207l29 158h158l256 1319h-158l33 160h360l-319 -1637h-359z" />
<glyph unicode="^" d="M68 616q133 203 262 403t262 402h162q53 -203 105 -402.5t106 -402.5h-197l-68 277l-67 291h-6q-45 -74 -89 -147.5t-92 -147.5q-41 -63 -84 -136t-83 -137h-211z" />
<glyph unicode="_" horiz-adv-x="1019" d="M-139 -297l30 156h1018l-32 -156h-1016z" />
<glyph unicode="`" horiz-adv-x="897" d="M434 1485l182 78l187 -389l-115 -62z" />
<glyph unicode="a" horiz-adv-x="931" d="M68 283q0 66 9 138.5t23 131.5q23 100 54.5 187t80 149.5t113 98.5t154.5 36q57 0 106 -22.5t80 -73.5q2 0 3 1t3 1l19 82h221l-197 -1012h-223l18 86q-2 0 -4 1t-4 1q-88 -100 -213 -100q-70 0 -115.5 22.5t-74.5 62.5t-41 93t-12 117zM299 338q0 -29 5 -53.5t17.5 -43 t35 -29.5t57.5 -11q53 0 91 36.5t56 86.5q14 37 28.5 87t24 99t15.5 92t6 70q0 55 -24.5 94t-84.5 39q-43 0 -77.5 -21.5t-61.5 -68.5q-18 -35 -34.5 -89.5t-28.5 -115.5q-10 -47 -17.5 -91t-7.5 -81z" />
<glyph unicode="b" horiz-adv-x="913" d="M14 0l289 1487h223l-108 -561h6q47 47 105.5 71.5t119.5 24.5q70 0 115 -21.5t71.5 -59.5t38 -89t11.5 -109q-2 -59 -13.5 -146t-31.5 -173q-23 -92 -52.5 -171t-75.5 -137.5t-109.5 -92t-149.5 -33.5q-61 0 -112.5 20.5t-80.5 73.5q-4 0 -6 -2l-18 -82h-222zM313 324 q0 -20 5.5 -42t17.5 -40.5t32.5 -29.5t51.5 -11q35 0 59.5 12t44.5 31q35 33 59.5 101.5t41.5 146.5q12 51 19 108t7 86q0 59 -24.5 92t-89.5 33q-86 0 -138 -98q-18 -43 -34.5 -93.5t-27.5 -101.5t-17.5 -101t-6.5 -93z" />
<glyph unicode="c" horiz-adv-x="811" d="M59 334q0 41 5.5 93t14.5 106.5t23.5 105.5t30.5 92q27 63 65 117.5t89 93.5t115.5 61.5t144.5 22.5q117 0 199.5 -58.5t99.5 -168.5l-197 -94q-10 59 -43 85.5t-76 26.5q-53 0 -90 -24.5t-63.5 -64.5t-43 -94t-28.5 -112q-8 -45 -14 -86t-6 -78q0 -74 25.5 -114.5 t92.5 -40.5q53 0 96.5 27.5t73.5 74.5l175 -96q-57 -100 -149.5 -159.5t-219.5 -59.5q-94 0 -155.5 28.5t-98.5 76.5t-51.5 110.5t-14.5 128.5z" />
<glyph unicode="d" horiz-adv-x="911" d="M63 293q0 31 3.5 66.5t8.5 71.5t10 68.5t11 57.5q18 92 48 177t77 149.5t115 103.5t162 39q53 0 106 -24.5t82 -67.5h6q29 139 55.5 276.5t53.5 276.5h223l-289 -1487h-223l16 82l-6 4q-47 -49 -100 -72.5t-119 -23.5q-74 0 -121 23.5t-72.5 64.5t-36 96t-10.5 119z M299 330q0 -53 23.5 -89t89.5 -36q53 0 92 35.5t57 83.5q16 41 27.5 86t21.5 92q10 49 16.5 93t6.5 81q0 53 -25 93t-84 40q-51 0 -84.5 -26.5t-57.5 -68.5t-37 -94.5t-23 -103.5q-23 -106 -23 -186z" />
<glyph unicode="e" horiz-adv-x="892" d="M63 328q0 111 23 234.5t77 227t145 171t229 67.5q162 0 243.5 -73.5t81.5 -186.5q0 -92 -34.5 -159.5t-99 -112.5t-154 -66.5t-195.5 -21.5h-42t-44 2q-6 -41 -6 -78q0 -57 28.5 -95t90.5 -38q47 0 99 25.5t91 76.5l176 -104q-68 -102 -168 -154.5t-225 -52.5 q-166 0 -241 92t-75 246zM328 592q13 -3 29 -3h9q22 1 37 1q129 2 180.5 43t51.5 100q0 39 -29 63.5t-82 24.5q-78 0 -126 -62.5t-70 -166.5z" />
<glyph unicode="f" horiz-adv-x="583" d="M-162 -287l35 203q20 -4 35.5 -5t34.5 -1q35 0 57.5 10t35.5 25.5t20 35t12 37.5l155 811h-119l37 185h119q2 10 7 35.5t11.5 54.5t10.5 54.5t6 37.5q12 63 35.5 118.5t63.5 96.5t99.5 64.5t143.5 23.5q27 0 55.5 -3t57.5 -7l-37 -203q-20 4 -37 7t-35 3q-35 0 -57.5 -12 t-37 -30.5t-20.5 -41t-10 -43.5l-33 -155h170l-37 -185h-167l-160 -823q-12 -61 -36 -117.5t-63.5 -97.5t-98 -65.5t-140.5 -24.5q-55 0 -113 12z" />
<glyph unicode="g" horiz-adv-x="919" d="M-8 -233l170 122q25 -41 68.5 -67.5t84.5 -26.5q72 0 111 36t59 91q14 41 22.5 82t18.5 84h-6q-49 -53 -106.5 -74.5t-116.5 -21.5q-72 0 -117 22.5t-72.5 60.5t-38 89t-10.5 110q4 143 47 320q16 59 34 116.5t40 104.5q53 111 133 160t179 49q53 0 108 -21.5t84 -74.5 q2 2 4 2l19 84h223q-47 -254 -95.5 -505t-97.5 -505q-16 -90 -43.5 -166t-76 -133t-122 -89t-182.5 -32q-117 0 -201.5 49.5t-119.5 133.5zM295 300q2 -28 13 -49.5t34 -34.5t64 -13q59 0 102 47t61 108q23 66 37.5 136.5t20.5 132.5q2 10 3 21t1 22q0 23 -4 47t-15.5 44.5 t-33 34t-56.5 13.5q-33 0 -57.5 -11.5t-44.5 -27.5q-35 -29 -59.5 -94.5t-41.5 -151.5q-8 -45 -14 -86t-10 -80q-1 -14 -1 -28.5t1 -29.5z" />
<glyph unicode="h" horiz-adv-x="942" d="M23 -2l288 1491h226l-113 -574l6 -2q51 53 114.5 82t123.5 29q133 0 190 -81q41 -58 41 -147q0 -34 -6 -73q0 -2 -8 -45t-20.5 -109.5t-27 -147.5t-29.5 -160t-28.5 -149.5t-21.5 -113.5h-228q8 39 20.5 101.5l27 135t29 147.5t26.5 135.5t19 100t7 41.5q3 20 3 38 q0 41 -16 69q-23 41 -93 41q-68 0 -117 -46t-65 -122l-125 -641h-223z" />
<glyph unicode="i" horiz-adv-x="450" d="M31 0l196 1014h226l-197 -1014h-225zM266 1212l41 213h225l-40 -213h-226z" />
<glyph unicode="j" horiz-adv-x="471" d="M-188 -406l41 207q4 0 23.5 -1t23.5 1q66 0 93 42t40 102l207 1071h225l-219 -1127q-27 -135 -111 -216t-227 -81h-18.5h-30t-29.5 1t-18 1zM279 1212l40 213h226l-41 -213h-225z" />
<glyph unicode="k" horiz-adv-x="935" d="M23 0l290 1487h222q-41 -215 -83 -428t-85 -428q4 0 5 -1t3 -1q51 53 99 106t97 107l164 170h275l-392 -404l230 -608h-252l-152 438q-37 -39 -71.5 -76.5t-71.5 -74.5l-55 -287h-223z" />
<glyph unicode="l" horiz-adv-x="493" d="M70 182q0 29 6 64q8 55 27.5 160.5t45 235.5t52 268.5t51 258t41 205.5t22.5 113h226q-59 -297 -116.5 -590t-115.5 -590q-4 -20 -4 -31q0 -35 25.5 -54t85.5 -23l-39 -203h-35q-133 0 -202.5 43t-69.5 143z" />
<glyph unicode="m" horiz-adv-x="1462" d="M35 0l196 1012h224q-6 -23 -10.5 -47.5t-10.5 -49.5h8q47 47 109.5 77t122.5 30q92 0 143 -35t76 -96h2q61 59 131 96t148 37q68 0 112.5 -19.5t72 -53t39 -78t11.5 -93.5q0 -57 -12 -114l-131 -666h-224l129 657q2 10 3.5 19.5t1.5 19.5q0 37 -23 68t-72 31 q-80 0 -131 -50.5t-67 -126.5l-121 -618h-225q45 221 74.5 375.5t54.5 281.5q2 10 3 21.5t1 21.5q0 41 -21.5 71t-77.5 30q-76 0 -128 -47t-68 -142l-119 -612h-221z" />
<glyph unicode="n" horiz-adv-x="940" d="M20 -2l199 1016h221l-18 -99h6q49 53 112.5 81t123.5 28q135 0 193 -81q42 -59 42 -145q0 -33 -6 -69q0 -4 -8 -47t-20.5 -109.5t-28 -147.5t-30.5 -162t-29.5 -151.5t-22.5 -113.5h-226q8 39 20.5 101.5l27 135t28.5 147.5t25.5 135.5t18.5 100t7 41.5q3 21 3 39 q0 40 -15 69q-22 42 -98 42q-68 0 -115 -48t-63 -122l-123 -641h-224z" />
<glyph unicode="o" horiz-adv-x="909" d="M72 328q0 53 9 123.5t23 136.5q45 205 149 320.5t294 115.5q86 0 148.5 -26.5t102.5 -70.5t58 -103.5t18 -125.5q0 -61 -9 -130.5t-23 -129.5q-23 -104 -56.5 -187t-86 -141.5t-127 -90t-179.5 -31.5q-96 0 -158.5 27.5t-98.5 74.5t-50 108.5t-14 129.5zM293 356 q0 -31 2 -59.5t14.5 -51t37 -36.5t69.5 -14q63 0 104 42t58 89q14 37 27 84t22.5 95t14.5 92t5 75q0 66 -29 107.5t-90 41.5q-72 0 -119 -57t-81 -186q-12 -49 -21.5 -112t-13.5 -110z" />
<glyph unicode="p" horiz-adv-x="921" d="M-61 -403q66 356 135 708t137 709h223q-4 -23 -8 -42.5t-8 -41.5q2 0 2 -1t2 -1q47 47 101.5 71.5t119.5 24.5q68 0 114 -21.5t73.5 -60.5t40 -93t12.5 -118q0 -31 -2 -65.5t-7.5 -71.5t-10.5 -72t-11 -63q-18 -92 -47 -177t-75 -149.5t-115.5 -103.5t-170.5 -39 q-51 0 -103 22.5t-83 67.5h-6l-92 -483h-221zM313 334q0 -53 26 -92t83 -39q80 0 131 76q25 39 43 100t31 127q8 41 13 80t7 69q0 29 -3 56.5t-14.5 49t-33.5 35t-59 13.5q-47 0 -89 -32t-71 -109q-23 -59 -36 -127t-22 -131q-6 -41 -6 -76z" />
<glyph unicode="q" horiz-adv-x="923" d="M68 287q4 68 15 153.5t34 177.5q23 88 54.5 163t76.5 129.5t106.5 84t145.5 29.5q57 0 111.5 -23.5t80.5 -74.5q2 0 4 2l19 84h223l-272 -1415h-230l99 489h-7q-47 -49 -103 -72.5t-116 -23.5q-72 0 -119 23.5t-74.5 64.5t-37.5 95t-10 114zM305 328q0 -51 21.5 -89 t89.5 -38q76 0 125 86q25 41 43 95t29.5 109.5t17.5 106.5t6 86q0 20 -4 43t-16.5 41t-33 29.5t-51.5 11.5q-74 0 -112 -49q-33 -39 -54.5 -100.5t-41.5 -159.5q-18 -98 -19 -172z" />
<glyph unicode="r" horiz-adv-x="686" d="M33 -2l196 1016h226l-25 -127h4q51 74 116.5 106.5t141.5 32.5q66 0 101 -27l-82 -225q-27 16 -55.5 21.5t-53.5 5.5q-88 0 -146.5 -53.5t-78.5 -155.5l-119 -594h-225z" />
<glyph unicode="s" horiz-adv-x="858" d="M10 211l183 96q29 -59 74.5 -89t117.5 -30q31 0 59.5 8.5t52 25t38 41t14.5 54.5q0 25 -13.5 42.5t-36 28.5t-53 19.5t-63.5 18.5q-49 14 -95 32.5t-81 47.5t-55.5 70.5t-20.5 101.5q0 82 32 147.5t84 109.5t121.5 67.5t145.5 23.5q125 0 209 -53t119 -146q-8 -4 -34 -19 t-53.5 -32.5t-53 -34t-33.5 -20.5q-20 55 -65.5 78.5t-100.5 23.5q-72 0 -110 -36.5t-38 -79.5q0 -20 16.5 -36t41 -28t55.5 -20.5t59 -16.5q49 -12 95.5 -30.5t81 -48t56 -72.5t21.5 -105q0 -84 -29.5 -151.5t-84 -113.5t-130 -70.5t-167.5 -24.5q-141 2 -232.5 59 t-126.5 162z" />
<glyph unicode="t" horiz-adv-x="567" d="M98 157q-2 17 -2 35q0 29 6 60l113 582h-106l34 178h107q14 68 27.5 134t25.5 134h219l-51 -268h137l-37 -178h-137l-102 -541q-3 -13 -2 -25q0 -24 10 -40q16 -26 74 -25h43l-39 -203q-25 -2 -48.5 -2h-47.5q-74 0 -121 21.5t-72 56.5t-31 81z" />
<glyph unicode="u" horiz-adv-x="944" d="M78 283q0 4 8 47t20.5 109.5t29 148.5t31.5 162.5t28.5 150.5t21.5 115h225q-8 -39 -20 -101.5t-26.5 -136t-29 -147.5t-25.5 -135.5t-18.5 -101.5t-7.5 -42q-4 -22 -4 -42q1 -40 17 -66q24 -40 98 -41q66 0 114 48t62 124l125 641h223l-196 -1016h-226l23 100h-6 q-49 -55 -113.5 -82.5t-124.5 -27.5q-135 0 -193 81q-42 58 -42 142q0 33 6 70z" />
<glyph unicode="v" horiz-adv-x="854" d="M84 1012h235q10 -154 22.5 -303.5t12.5 -315.5v-50.5t-2 -53.5h8q98 164 172 341t142 382h246q-53 -145 -107.5 -276.5t-115 -254.5t-128 -241.5t-147.5 -239.5h-225q-29 256 -56.5 506t-56.5 506z" />
<glyph unicode="w" horiz-adv-x="1341" d="M90 1012h238q2 -113 6 -225.5t4 -227.5q0 -68 1 -124v-16q0 -50 -5 -116h8q82 160 153.5 341t131.5 368h229l14 -406q2 -39 2 -71.5t-1 -66.5t-2 -71t-3 -80h11q80 158 146.5 325t131.5 370h246q-49 -147 -101.5 -277.5t-111 -252.5t-125 -239.5t-141.5 -242.5h-222 q-4 137 -9 268t-5 285v50.5t2 51.5h-10q-37 -106 -71 -198t-75 -178q-33 -70 -66.5 -138.5t-74.5 -140.5h-225z" />
<glyph unicode="x" horiz-adv-x="868" d="M-72 0l404 518q-20 45 -46 111.5t-51.5 136.5t-51 135.5t-46.5 112.5h254l92 -320h2l211 320h267q-98 -125 -195.5 -249t-196.5 -249q20 -47 48 -115.5t55.5 -142.5t55.5 -142.5t48 -115.5h-254l-98 334h-2q-23 -31 -53.5 -75t-62.5 -92t-63.5 -92t-51.5 -75h-265z" />
<glyph unicode="y" horiz-adv-x="823" d="M-113 -227q49 6 92.5 19t83 40t74.5 69t68 105q-4 43 -13.5 123t-20.5 178.5t-23.5 206t-24.5 204.5t-21.5 175t-15.5 119h236q4 -53 9 -122t10 -132.5t8 -112.5t3 -63q4 -72 7 -158q1 -20 1 -40q0 -68 -8 -142h6q41 76 81 169t77 193.5t72 204.5t65 203h238 q-63 -176 -128 -340t-130.5 -311.5t-132 -274.5t-131.5 -225q-94 -141 -216 -215q-113 -68 -241 -68h-21z" />
<glyph unicode="z" horiz-adv-x="794" d="M-31 0l37 197l529 618h-381l36 199h646l-35 -189l-529 -616h408l-41 -209h-670z" />
<glyph unicode="{" horiz-adv-x="540" d="M51 545l29 149q76 8 121 67.5t63 153.5l55 281q20 104 86 166.5t179 62.5h127l-31 -155h-57q-49 0 -75 -40t-36 -91l-51 -262q-23 -109 -80 -169.5t-105 -82.5l-2 -9q20 -10 40 -29.5t34 -50t18.5 -73.5t-6.5 -96l-53 -283q-12 -59 1.5 -97t58.5 -38h57l-29 -154h-112 q-102 0 -155.5 65.5t-31.5 188.5l54 277q18 100 -4.5 157.5t-94.5 61.5z" />
<glyph unicode="|" horiz-adv-x="477" d="M145 -365v1852h187v-1852h-187z" />
<glyph unicode="}" horiz-adv-x="540" d="M-90 -205l31 156h55q49 0 74.5 40t38.5 101l49 260q23 106 78 168t106 82l2 10q-20 8 -39.5 29t-34 51.5t-18.5 73.5t6 98l53 266q12 63 0 101.5t-65 38.5h-53l28 153h123q104 0 152.5 -62.5t25.5 -180.5l-53 -277q-18 -98 3.5 -157.5t92.5 -65.5l-28 -148 q-74 -6 -119 -64t-64 -157l-57 -286q-20 -104 -85 -167t-181 -63h-121z" />
<glyph unicode="~" d="M61 512q66 106 140.5 155.5t160.5 49.5q45 0 85 -17.5t76 -38t69 -38t67 -17.5q41 0 79 23.5t85 81.5l113 -82q-63 -111 -133 -159t-152 -48q-43 0 -83 17.5t-77.5 37t-74.5 36.5t-74 17q-43 0 -80 -22.5t-92 -79.5q-29 23 -54.5 43.5t-54.5 40.5z" />
<glyph unicode="&#xa1;" horiz-adv-x="532" d="M20 -412l224 1041h186l-184 -1041h-226zM250 784l45 230h229l-45 -230h-229z" />
<glyph unicode="&#xa2;" d="M86 334q0 41 5 93t14.5 106.5t23.5 105.5t31 92q51 121 141 202t234 91l36 186h78l-37 -186q104 -10 174 -67.5t86 -157.5l-196 -94q-10 53 -38 79.5t-65 30.5l-118 -610q45 6 80.5 32.5t64.5 67.5l174 -96q-57 -98 -148 -157.5t-214 -61.5l-39 -209h-78l41 215 q-74 10 -122 42t-76.5 78t-40 102t-11.5 116zM311 358q0 -57 14.5 -95t51.5 -52l115 594q-70 -29 -106 -106.5t-54 -176.5q-8 -45 -14.5 -86t-6.5 -78z" />
<glyph unicode="&#xa3;" d="M-10 0q8 45 15 90t18 90q80 90 134 183.5t81 216.5h-144q10 43 18.5 86t16.5 86h127q-4 66 -14.5 130t-10.5 124q0 88 28 165.5t82 136t132 93.5t178 35q170 0 259 -86t104 -230l-215 -65q-6 33 -17.5 62.5t-30 52t-46 36t-66.5 13.5q-43 0 -75 -18.5t-52 -47.5 t-29.5 -67.5t-9.5 -77.5q0 -59 11.5 -124t11.5 -132h249l-36 -172h-240q-27 -117 -65.5 -206t-98.5 -169h510q-10 -53 -19.5 -103.5t-19.5 -101.5h-786z" />
<glyph unicode="&#xa5;" d="M86 340l27 131h249l15 76l2 47h-242l25 129h190l-151 702h231q16 -90 29.5 -177t27.5 -177l37 -270h9q20 45 48.5 100t67.5 129t91.5 170t123.5 225h254l-426 -702h197l-25 -129h-250l-16 -47l-16 -76h258l-25 -131h-256l-67 -340h-222q16 86 33 170t33 170h-252z" />
<glyph unicode="&#xa7;" horiz-adv-x="933" d="M10 0l135 143q53 -59 115 -84.5t121 -25.5q88 0 141 41t53 112q0 27 -17 51.5t-46 48t-65.5 45t-75.5 44.5q-53 29 -95.5 56.5t-71 59t-45 69.5t-16.5 85q0 90 46.5 162t132.5 113q-31 37 -47.5 77.5t-16.5 94.5q0 80 30.5 143t84 107t125 69t153.5 25q104 0 189.5 -31 t152.5 -98l-125 -150q-59 55 -114.5 73.5t-108.5 18.5q-80 0 -125 -43t-45 -96q0 -37 33 -65.5t81 -56t104.5 -57.5t104.5 -69t80.5 -89t32.5 -120q0 -92 -48 -161.5t-118 -112.5q23 -35 37.5 -75t14.5 -85q0 -84 -32 -152.5t-88 -117.5t-134 -76t-170 -27 q-51 0 -103.5 11.5t-101.5 32t-90 48t-68 62.5zM352 690q0 -35 27 -62.5t67.5 -51t87 -44t87.5 -40.5q35 16 57 52t22 74q0 33 -16 55.5t-49 43t-79 43t-107 53.5q-41 -16 -69 -51t-28 -72z" />
<glyph unicode="&#xa8;" horiz-adv-x="868" d="M289 1178l43 221h215l-41 -221h-217zM657 1178l43 221h215l-41 -221h-217z" />
<glyph unicode="&#xa9;" horiz-adv-x="1552" d="M100 698q0 156 48.5 289t135.5 229.5t212 151.5t278 55q152 0 276 -54t211 -151.5t135 -230.5t48 -289q0 -154 -48 -285.5t-135 -228t-211 -150.5t-276 -54q-154 0 -278.5 54t-212.5 149.5t-135.5 227.5t-47.5 287zM252 698q0 -121 37 -227t105.5 -185t164.5 -124 t215 -45t215 45t164 124t104.5 185.5t36.5 226.5q0 125 -36.5 231.5t-104.5 185.5t-164 124t-215 45q-121 0 -218 -45t-164.5 -125t-103.5 -186.5t-36 -229.5zM494 537v288q0 63 18 118.5t53 96.5t88 64.5t123 23.5q111 0 185.5 -60t91.5 -159l-148 -47q-10 53 -43 86 t-86 33q-35 0 -59.5 -13.5t-39.5 -35t-22.5 -48t-7.5 -55.5v-290q0 -57 30 -103.5t99 -46.5q109 0 127 119l150 -45q-20 -106 -93 -164.5t-184 -58.5q-74 0 -128 23.5t-88 64.5t-50 95t-16 114z" />
<glyph unicode="&#xaa;" horiz-adv-x="643" d="M131 760q0 41 5 86t16 90q14 68 34.5 124t52 98t77.5 65.5t110 23.5q35 0 69.5 -13t59.5 -42l10 51h172q-33 -168 -64.5 -336t-66.5 -336h-170q2 12 4 25.5t6 26.5q-2 0 -2 2q-29 -31 -64.5 -46.5t-74.5 -15.5q-90 0 -132 55.5t-42 141.5zM305 805q0 -37 14.5 -62.5 t55.5 -25.5q39 0 61.5 23.5t34.5 56.5q16 43 27.5 98t15.5 98q2 10 2 31q-4 29 -18.5 49.5t-48.5 20.5q-55 0 -87 -54q-10 -14 -20 -47q-18 -47 -27.5 -103t-9.5 -85z" />
<glyph unicode="&#xab;" horiz-adv-x="1036" d="M102 479l326 402h219l-328 -404l170 -401h-210zM496 479l325 402h226l-334 -404l170 -401h-213z" />
<glyph unicode="&#xac;" d="M55 516l37 180h873l-105 -534h-190l69 354h-684z" />
<glyph unicode="&#xad;" horiz-adv-x="794" d="M106 455l39 202h607l-39 -202h-607z" />
<glyph unicode="&#xae;" horiz-adv-x="1052" d="M104 991q0 96 31 179t86 143.5t133 94.5t174 34q94 0 172 -34t133.5 -94.5t86 -143.5t30.5 -179t-30.5 -179t-86 -142.5t-133.5 -93t-172 -33.5q-96 0 -175 33.5t-134 93t-85 142.5t-30 179zM205 993q0 -78 23.5 -142.5t65.5 -112.5t101.5 -74.5t132.5 -26.5 q76 0 134.5 27.5t99.5 75.5t62.5 113t21.5 140q0 76 -22.5 141.5t-63.5 113.5t-99.5 76t-132.5 28q-76 0 -135 -28t-101 -76t-64.5 -113.5t-22.5 -141.5zM371 729v526h176q72 0 113.5 -39.5t41.5 -117.5q0 -47 -19 -84t-60 -60q8 -23 21 -52.5t26.5 -61t27 -61t23.5 -50.5 h-113q-20 53 -40.5 104.5t-43.5 104.5h-53v-209h-100zM471 1028h66q31 0 49 17.5t18 52.5q0 66 -63 65h-70v-135z" />
<glyph unicode="&#xaf;" horiz-adv-x="899" d="M330 1194l37 190h559l-39 -190h-557z" />
<glyph unicode="&#xb0;" horiz-adv-x="743" d="M102 1169q0 55 21.5 103.5t58.5 85.5t87 57.5t106 20.5q57 0 106 -20.5t86 -57.5t57.5 -85.5t20.5 -103.5t-21.5 -103t-58.5 -85t-86 -57.5t-104 -20.5t-105.5 20.5t-87.5 57.5t-58.5 85t-21.5 103zM248 1169q0 -53 37 -90t90 -37t90 37t37 90t-37 89t-90 36t-90 -35.5 t-37 -89.5z" />
<glyph unicode="&#xb1;" d="M-43 0l35 176h874l-35 -176h-874zM74 590l37 178h342l67 340h182l-65 -340h342l-35 -178h-342l-65 -334h-183l64 334h-344z" />
<glyph unicode="&#xb4;" horiz-adv-x="897" d="M496 1169l239 377l189 -76l-310 -358z" />
<glyph unicode="&#xb6;" horiz-adv-x="1017" d="M131 924q0 82 27.5 173t83 166.5t137.5 125t192 49.5h549l-35 -174h-90l-276 -1418h-174q68 356 137.5 708.5t136.5 709.5h-131q-70 -356 -138.5 -708.5t-135.5 -709.5h-181l156 801h-39q-57 2 -98 25.5t-67.5 60.5t-40 86t-13.5 105z" />
<glyph unicode="&#xb7;" horiz-adv-x="491" d="M137 426l49 266h252l-49 -266h-252z" />
<glyph unicode="&#xb8;" horiz-adv-x="899" d="M86 -389q10 16 28.5 52t26.5 52q41 -20 76 -26t62 -6q39 0 66.5 19t27.5 54q0 27 -19.5 43.5t-54.5 16.5q-14 0 -23 -2l-51 39l111 223l108 -2q-6 -10 -16 -33t-22.5 -47.5t-22.5 -46t-16 -31.5q92 -10 123.5 -55t31.5 -99q0 -33 -13 -67.5t-43 -62t-75 -46t-108 -18.5 q-31 0 -89.5 7t-107.5 36z" />
<glyph unicode="&#xba;" horiz-adv-x="628" d="M125 772q0 35 4 65.5t8 61.5q14 82 37 149.5t70 122.5q74 78 205 78q117 0 179 -59.5t62 -149.5q0 -45 -5 -92t-15 -88q-29 -137 -97.5 -217t-212.5 -80q-66 0 -109.5 17.5t-72 47t-41 66.5t-12.5 78zM295 811q0 -96 76 -96q39 0 62.5 27.5t35.5 58.5q8 16 15.5 35.5 t11.5 40.5q10 35 15 71.5t5 65.5q0 37 -16.5 62.5t-61.5 25.5q-41 0 -69 -33q-16 -23 -27.5 -51.5t-22.5 -59.5q-10 -35 -17 -76.5t-7 -70.5z" />
<glyph unicode="&#xbb;" horiz-adv-x="1036" d="M23 76l335 405l-172 402h211l176 -404l-327 -403h-223zM416 76l336 405l-172 402h211l176 -404l-328 -403h-223z" />
<glyph unicode="&#xbf;" horiz-adv-x="901" d="M45 -109q0 63 13.5 113.5t36 91.5t51 77t59.5 71q39 45 74.5 81.5t64.5 71.5t49.5 69t28.5 75l20 92h226l-21 -103q-14 -78 -47 -139t-73 -112.5t-82 -94.5t-75.5 -84t-56 -82t-22.5 -86q0 -57 35.5 -95t101.5 -38q72 0 125 49.5t65 147.5q57 -10 112.5 -17.5 t111.5 -15.5q-37 -203 -151 -293t-296 -90q-156 0 -253 84t-97 227zM471 786q12 57 23.5 113.5t21.5 114.5h225q-10 -57 -21 -113.5t-24 -114.5h-225z" />
<glyph unicode="&#xc0;" horiz-adv-x="1064" d="M-72 0l686 1425h224l131 -1425h-242l-16 307h-394l-141 -307h-248zM311 1692l131 155l330 -256l-80 -104zM410 516h288l-14 285l-12 305h-8l-125 -301z" />
<glyph unicode="&#xc1;" horiz-adv-x="1064" d="M-72 0l686 1425h224l131 -1425h-242l-16 307h-394l-141 -307h-248zM410 516h288l-14 285l-12 305h-8l-125 -301zM664 1589l370 258l125 -153l-420 -209z" />
<glyph unicode="&#xc2;" horiz-adv-x="1064" d="M-72 0l686 1425h224l131 -1425h-242l-16 307h-394l-141 -307h-248zM373 1581l340 264h143l227 -260l-96 -90l-231 166l-312 -168zM410 516h288l-14 285l-12 305h-8l-125 -301z" />
<glyph unicode="&#xc3;" horiz-adv-x="1064" d="M-72 0l686 1425h224l131 -1425h-242l-16 307h-394l-141 -307h-248zM379 1581q59 100 121.5 143t128.5 43q35 0 67.5 -13t63.5 -28.5t59.5 -29t52.5 -13.5q29 0 59 17.5t73 66.5l108 -67q-55 -109 -117.5 -149t-126.5 -40q-37 0 -69.5 12.5t-63 28t-59.5 28.5t-55 13 q-29 0 -59 -19.5t-75 -66.5zM410 516h288l-14 285l-12 305h-8l-125 -301z" />
<glyph unicode="&#xc4;" horiz-adv-x="1064" d="M-72 0l686 1425h224l131 -1425h-242l-16 307h-394l-141 -307h-248zM410 516h288l-14 285l-12 305h-8l-125 -301zM451 1520l41 221h221l-43 -221h-219zM821 1520l43 221h217l-41 -221h-219z" />
<glyph unicode="&#xc5;" horiz-adv-x="1064" d="M-72 0l686 1425h224l131 -1425h-242l-16 307h-394l-141 -307h-248zM410 516h288l-14 285l-12 305h-8l-125 -301zM553 1610q0 49 18.5 94t51 79t77.5 54.5t101 20.5q78 0 131 -49.5t53 -122.5q0 -51 -18.5 -96.5t-52 -78t-79 -52t-98.5 -19.5q-80 0 -132 49t-52 121z M678 1630q0 -31 21.5 -50t54.5 -19q41 0 72.5 29.5t31.5 74.5q0 29 -20.5 49.5t-53.5 20.5q-41 0 -73.5 -32t-32.5 -73z" />
<glyph unicode="&#xc6;" horiz-adv-x="1697" d="M-45 0q37 59 105.5 172t151.5 251t174 289.5t174 290t151.5 251t105.5 171.5h938l-31 -217h-557l-55 -381h481l-30 -213h-480q-4 -31 -12 -85t-16 -112.5t-15.5 -112.5t-11.5 -83h559l-28 -221h-797l49 350h-395l-215 -350h-246zM543 561h297l92 643l-6 2z" />
<glyph unicode="&#xc7;" horiz-adv-x="1007" d="M94 346q0 33 4 69t11 74q4 25 8 48.5t8 46.5q16 78 32.5 159.5t30.5 159.5q20 100 53 196.5t89.5 171.5t143.5 120t214 45q182 0 280.5 -95.5t108.5 -242.5q-57 -16 -113.5 -32.5t-113.5 -33.5q-4 76 -47 129t-125 53q-66 0 -109 -25.5t-70.5 -67.5t-44 -94t-28.5 -105 q-25 -106 -43 -215t-41 -218q-6 -35 -10 -65.5t-4 -63.5q0 -66 32.5 -109.5t128.5 -43.5q82 0 143.5 48t90.5 138q55 -16 111.5 -33.5t111.5 -35.5q-49 -145 -160.5 -238.5t-289.5 -97.5l-35 -72q92 -10 123.5 -55t31.5 -99q0 -33 -13 -67.5t-43 -62t-75 -46t-108 -18.5 q-31 0 -89.5 7t-107.5 36q10 16 28.5 52t27.5 52q41 -20 75.5 -26t61.5 -6q39 0 66.5 19t27.5 54q0 27 -19.5 43.5t-54.5 16.5q-14 0 -22 -2l-52 39l70 141q-158 23 -226.5 120t-68.5 232z" />
<glyph unicode="&#xc8;" horiz-adv-x="956" d="M45 0l277 1425h784l-43 -217h-551l-76 -381h475l-41 -213h-475l-76 -397h551l-41 -217h-784zM391 1692l131 155l330 -256l-80 -104z" />
<glyph unicode="&#xc9;" horiz-adv-x="956" d="M45 0l277 1425h784l-43 -217h-551l-76 -381h475l-41 -213h-475l-76 -397h551l-41 -217h-784zM586 1589l370 258l125 -153l-419 -209z" />
<glyph unicode="&#xca;" horiz-adv-x="956" d="M45 0l277 1425h784l-43 -217h-551l-76 -381h475l-41 -213h-475l-76 -397h551l-41 -217h-784zM367 1581l340 264h143l227 -260l-96 -90l-231 166l-312 -168z" />
<glyph unicode="&#xcb;" horiz-adv-x="956" d="M45 0l277 1425h784l-43 -217h-551l-76 -381h475l-41 -213h-475l-76 -397h551l-41 -217h-784zM428 1520l41 221h221l-43 -221h-219zM799 1520l43 221h217l-41 -221h-219z" />
<glyph unicode="&#xcc;" horiz-adv-x="491" d="M45 0l279 1425h231l-276 -1425h-234zM90 1692l131 155l330 -256l-80 -104z" />
<glyph unicode="&#xcd;" horiz-adv-x="491" d="M45 0l279 1425h231l-276 -1425h-234zM373 1589l370 258l125 -153l-419 -209z" />
<glyph unicode="&#xce;" horiz-adv-x="491" d="M45 0l279 1425h231l-276 -1425h-234zM109 1581l340 264h143l227 -260l-96 -90l-231 166l-312 -168z" />
<glyph unicode="&#xcf;" horiz-adv-x="491" d="M45 0l279 1425h231l-276 -1425h-234zM168 1530l41 221h221l-43 -221h-219zM539 1530l43 221h217l-41 -221h-219z" />
<glyph unicode="&#xd0;" horiz-adv-x="1093" d="M41 637l31 164h129l121 624h415q164 0 262.5 -79.5t98.5 -245.5q0 -68 -11.5 -160t-29.5 -197q-31 -174 -61.5 -306t-69.5 -201q-39 -70 -87 -115t-104.5 -71.5t-119 -38t-130.5 -11.5h-440l123 637h-127zM317 215h168q70 0 119 18.5t82 52t51.5 82t30.5 109.5 q16 82 31.5 162t31.5 162q4 29 11.5 59.5t11.5 59.5q4 33 8 60.5t4 47.5q0 82 -39 131t-149 49h-166l-80 -407h129l-33 -164h-129z" />
<glyph unicode="&#xd1;" horiz-adv-x="1171" d="M41 0l278 1425h211l238 -745q18 -55 34.5 -107.5t26.5 -93.5h9l178 946h229l-276 -1425h-209q-41 121 -81 239.5t-81 239.5l-141 451h-6l-179 -930h-231zM444 1575q59 100 121.5 143t128.5 43q35 0 68 -13t63.5 -28.5t59 -29t53.5 -13.5q29 0 58.5 17.5t72.5 66.5 l109 -67q-55 -109 -118 -149t-126 -40q-37 0 -70 12.5t-63.5 28t-59 28.5t-55.5 13q-29 0 -58.5 -19.5t-74.5 -66.5z" />
<glyph unicode="&#xd2;" horiz-adv-x="1056" d="M94 291q-12 88 6 184l103 520q14 76 47 154t89 141.5t141 104.5t206 41q113 0 194 -40t128 -105.5t62 -148.5t-1 -169l-100 -541q-41 -211 -152.5 -327.5t-312.5 -116.5q-129 0 -215 40t-134.5 107.5t-60.5 155.5zM328 360.5q4 -45.5 24.5 -79t59.5 -52t98 -18.5 q86 0 143.5 54t75.5 149l111 577q6 27 2 65t-23.5 72.5t-58.5 58t-103 23.5q-57 0 -96 -21.5t-64.5 -53t-40 -68.5t-20.5 -70l-102 -538q-10 -53 -6 -98.5zM438 1692l131 155l330 -256l-80 -104z" />
<glyph unicode="&#xd3;" horiz-adv-x="1056" d="M94 291q-12 88 6 184l103 520q14 76 47 154t89 141.5t141 104.5t206 41q113 0 194 -40t128 -105.5t62 -148.5t-1 -169l-100 -541q-41 -211 -152.5 -327.5t-312.5 -116.5q-129 0 -215 40t-134.5 107.5t-60.5 155.5zM328 360.5q4 -45.5 24.5 -79t59.5 -52t98 -18.5 q86 0 143.5 54t75.5 149l111 577q6 27 2 65t-23.5 72.5t-58.5 58t-103 23.5q-57 0 -96 -21.5t-64.5 -53t-40 -68.5t-20.5 -70l-102 -538q-10 -53 -6 -98.5zM639 1589l371 258l125 -153l-420 -209z" />
<glyph unicode="&#xd4;" horiz-adv-x="1056" d="M94 291q-12 88 6 184l103 520q14 76 47 154t89 141.5t141 104.5t206 41q113 0 194 -40t128 -105.5t62 -148.5t-1 -169l-100 -541q-41 -211 -152.5 -327.5t-312.5 -116.5q-129 0 -215 40t-134.5 107.5t-60.5 155.5zM328 360.5q4 -45.5 24.5 -79t59.5 -52t98 -18.5 q86 0 143.5 54t75.5 149l111 577q6 27 2 65t-23.5 72.5t-58.5 58t-103 23.5q-57 0 -96 -21.5t-64.5 -53t-40 -68.5t-20.5 -70l-102 -538q-10 -53 -6 -98.5zM385 1581l340 264h143l228 -260l-97 -90l-231 166l-311 -168z" />
<glyph unicode="&#xd5;" horiz-adv-x="1056" d="M94 291q-12 88 6 184l103 520q14 76 47 154t89 141.5t141 104.5t206 41q113 0 194 -40t128 -105.5t62 -148.5t-1 -169l-100 -541q-41 -211 -152.5 -327.5t-312.5 -116.5q-129 0 -215 40t-134.5 107.5t-60.5 155.5zM328 360.5q4 -45.5 24.5 -79t59.5 -52t98 -18.5 q86 0 143.5 54t75.5 149l111 577q6 27 2 65t-23.5 72.5t-58.5 58t-103 23.5q-57 0 -96 -21.5t-64.5 -53t-40 -68.5t-20.5 -70l-102 -538q-10 -53 -6 -98.5zM393 1581q59 100 121.5 143t128.5 43q35 0 67.5 -13t63.5 -28.5t59.5 -29t53.5 -13.5q29 0 58.5 17.5t72.5 66.5 l108 -67q-55 -109 -117.5 -149t-125.5 -40q-37 0 -70 12.5t-63.5 28t-59 28.5t-55.5 13q-29 0 -58.5 -19.5t-74.5 -66.5z" />
<glyph unicode="&#xd6;" horiz-adv-x="1056" d="M94 291q-12 88 6 184l103 520q14 76 47 154t89 141.5t141 104.5t206 41q113 0 194 -40t128 -105.5t62 -148.5t-1 -169l-100 -541q-41 -211 -152.5 -327.5t-312.5 -116.5q-129 0 -215 40t-134.5 107.5t-60.5 155.5zM328 360.5q4 -45.5 24.5 -79t59.5 -52t98 -18.5 q86 0 143.5 54t75.5 149l111 577q6 27 2 65t-23.5 72.5t-58.5 58t-103 23.5q-57 0 -96 -21.5t-64.5 -53t-40 -68.5t-20.5 -70l-102 -538q-10 -53 -6 -98.5zM449 1520l40 221h222l-43 -221h-219zM819 1520l43 221h217l-41 -221h-219z" />
<glyph unicode="&#xd8;" horiz-adv-x="1056" d="M57 41q20 29 41 57.5t43 57.5q-41 66 -49 147.5t8 171.5l103 520q14 76 47 154t89 141.5t141 104.5t206 41q98 0 171 -30t120 -81q20 29 40.5 56.5t41.5 56.5l74 -56l-99 -137q63 -123 35 -272l-100 -541q-41 -211 -152.5 -327.5t-312.5 -116.5q-104 0 -181 27.5 t-128 74.5l-72 -100q-16 10 -32.5 23.5t-33.5 27.5zM328 416l497 696q-18 41 -57 69.5t-111 28.5q-57 0 -96 -21.5t-64.5 -53t-40 -68.5t-20.5 -70l-102 -538q-6 -23 -6 -43zM344 295q41 -84 166 -84q86 0 143.5 54t75.5 149l107 557z" />
<glyph unicode="&#xd9;" horiz-adv-x="1083" d="M111.5 262q-15.5 82 3.5 178q6 37 21.5 116t33.5 177t39.5 207t40 206t33 172t20.5 107h232q-6 -31 -20.5 -105.5t-34 -172.5t-41 -208t-40 -208t-34 -176t-21.5 -111q-8 -47 -5 -88t21.5 -71.5t51 -49t84.5 -18.5q115 0 173 69.5t81 180.5q2 14 16 87t33.5 175t42 218 t43 218.5t34 174t17.5 85.5h233q-8 -39 -22 -115.5t-32.5 -172t-39 -198.5t-39 -198.5t-34 -171t-21.5 -114.5q-20 -104 -59 -190.5t-100.5 -148t-145.5 -94t-191 -32.5q-109 0 -186.5 34.5t-124.5 95t-62.5 142.5zM432 1692l131 155l330 -256l-80 -104z" />
<glyph unicode="&#xda;" horiz-adv-x="1083" d="M111.5 262q-15.5 82 3.5 178q6 37 21.5 116t33.5 177t39.5 207t40 206t33 172t20.5 107h232q-6 -31 -20.5 -105.5t-34 -172.5t-41 -208t-40 -208t-34 -176t-21.5 -111q-8 -47 -5 -88t21.5 -71.5t51 -49t84.5 -18.5q115 0 173 69.5t81 180.5q2 14 16 87t33.5 175t42 218 t43 218.5t34 174t17.5 85.5h233q-8 -39 -22 -115.5t-32.5 -172t-39 -198.5t-39 -198.5t-34 -171t-21.5 -114.5q-20 -104 -59 -190.5t-100.5 -148t-145.5 -94t-191 -32.5q-109 0 -186.5 34.5t-124.5 95t-62.5 142.5zM639 1589l371 258l125 -153l-420 -209z" />
<glyph unicode="&#xdb;" horiz-adv-x="1083" d="M111.5 262q-15.5 82 3.5 178q6 37 21.5 116t33.5 177t39.5 207t40 206t33 172t20.5 107h232q-6 -31 -20.5 -105.5t-34 -172.5t-41 -208t-40 -208t-34 -176t-21.5 -111q-8 -47 -5 -88t21.5 -71.5t51 -49t84.5 -18.5q115 0 173 69.5t81 180.5q2 14 16 87t33.5 175t42 218 t43 218.5t34 174t17.5 85.5h233q-8 -39 -22 -115.5t-32.5 -172t-39 -198.5t-39 -198.5t-34 -171t-21.5 -114.5q-20 -104 -59 -190.5t-100.5 -148t-145.5 -94t-191 -32.5q-109 0 -186.5 34.5t-124.5 95t-62.5 142.5zM412 1581l340 264h143l227 -260l-96 -90l-231 166 l-312 -168z" />
<glyph unicode="&#xdc;" horiz-adv-x="1083" d="M111.5 262q-15.5 82 3.5 178q6 37 21.5 116t33.5 177t39.5 207t40 206t33 172t20.5 107h232q-6 -31 -20.5 -105.5t-34 -172.5t-41 -208t-40 -208t-34 -176t-21.5 -111q-8 -47 -5 -88t21.5 -71.5t51 -49t84.5 -18.5q115 0 173 69.5t81 180.5q2 14 16 87t33.5 175t42 218 t43 218.5t34 174t17.5 85.5h233q-8 -39 -22 -115.5t-32.5 -172t-39 -198.5t-39 -198.5t-34 -171t-21.5 -114.5q-20 -104 -59 -190.5t-100.5 -148t-145.5 -94t-191 -32.5q-109 0 -186.5 34.5t-124.5 95t-62.5 142.5zM459 1520l41 221h221l-43 -221h-219zM829 1520l43 221h218 l-41 -221h-220z" />
<glyph unicode="&#xdd;" horiz-adv-x="964" d="M207 1425h237q4 -18 15.5 -73.5t24 -119t22.5 -117.5t14 -73q10 -49 18.5 -111.5t14.5 -109.5h12q35 66 71 134.5t73 134.5q14 25 39.5 70.5t54 97t54.5 97.5t40 70h250q-23 -37 -64 -102.5t-91 -147t-105.5 -171t-105.5 -171t-91 -148.5t-63 -101l-115 -584h-225 q4 25 13 71t20.5 102t23.5 118.5t23.5 119t19.5 102.5t14 71q-47 211 -97 420.5t-97 420.5zM553 1589l371 258l125 -153l-420 -209z" />
<glyph unicode="&#xde;" horiz-adv-x="1028" d="M47 0l272 1423h236l-49 -256h180q172 0 269.5 -83t97.5 -250q0 -123 -35 -224.5t-99.5 -172t-158.5 -109.5t-211 -39h-215l-55 -289h-232zM377 508h192q111 0 181.5 72.5t70.5 205.5q0 164 -180 164h-178z" />
<glyph unicode="&#xdf;" horiz-adv-x="956" d="M25 0q53 268 104 535.5t102 535.5q18 94 49 170t79.5 129t117 83t162.5 30q86 0 147.5 -22.5t102.5 -62.5t60.5 -96.5t19.5 -121.5q0 -111 -47.5 -195t-133.5 -123v-4q66 -29 88.5 -87t22.5 -128q0 -49 -5 -99t-13 -102q-14 -90 -41 -172t-78 -144.5t-130 -99t-198 -36.5 h-31.5t-31.5 2l37 190q72 -4 115.5 26t70.5 84t41 124.5t27 150.5q4 29 3 63t-13.5 62.5t-38 48t-70.5 19.5l37 178q49 2 80.5 28.5t50 60.5t26.5 67.5t8 52.5q0 51 -26.5 89t-89.5 38q-80 0 -116 -56.5t-52 -140.5l-211 -1077h-225z" />
<glyph unicode="&#xe0;" horiz-adv-x="931" d="M68 283q0 66 9 138.5t23 131.5q23 100 54.5 187t80 149.5t113 98.5t154.5 36q57 0 106 -22.5t80 -73.5q2 0 3 1t3 1l19 82h221l-197 -1012h-223l18 86q-2 0 -4 1t-4 1q-88 -100 -213 -100q-70 0 -115.5 22.5t-74.5 62.5t-41 93t-12 117zM299 338q0 -29 5 -53.5t17.5 -43 t35 -29.5t57.5 -11q53 0 91 36.5t56 86.5q14 37 28.5 87t24 99t15.5 92t6 70q0 55 -24.5 94t-84.5 39q-43 0 -77.5 -21.5t-61.5 -68.5q-18 -35 -34.5 -89.5t-28.5 -115.5q-10 -47 -17.5 -91t-7.5 -81zM348 1485l182 78l187 -389l-115 -62z" />
<glyph unicode="&#xe1;" horiz-adv-x="931" d="M68 283q0 66 9 138.5t23 131.5q23 100 54.5 187t80 149.5t113 98.5t154.5 36q57 0 106 -22.5t80 -73.5q2 0 3 1t3 1l19 82h221l-197 -1012h-223l18 86q-2 0 -4 1t-4 1q-88 -100 -213 -100q-70 0 -115.5 22.5t-74.5 62.5t-41 93t-12 117zM299 338q0 -29 5 -53.5t17.5 -43 t35 -29.5t57.5 -11q53 0 91 36.5t56 86.5q14 37 28.5 87t24 99t15.5 92t6 70q0 55 -24.5 94t-84.5 39q-43 0 -77.5 -21.5t-61.5 -68.5q-18 -35 -34.5 -89.5t-28.5 -115.5q-10 -47 -17.5 -91t-7.5 -81zM522 1169l240 377l188 -76l-309 -358z" />
<glyph unicode="&#xe2;" horiz-adv-x="931" d="M68 283q0 66 9 138.5t23 131.5q23 100 54.5 187t80 149.5t113 98.5t154.5 36q57 0 106 -22.5t80 -73.5q2 0 3 1t3 1l19 82h221l-197 -1012h-223l18 86q-2 0 -4 1t-4 1q-88 -100 -213 -100q-70 0 -115.5 22.5t-74.5 62.5t-41 93t-12 117zM258 1180l346 311h146l221 -313 l-107 -78l-215 211l-313 -213zM299 338q0 -29 5 -53.5t17.5 -43t35 -29.5t57.5 -11q53 0 91 36.5t56 86.5q14 37 28.5 87t24 99t15.5 92t6 70q0 55 -24.5 94t-84.5 39q-43 0 -77.5 -21.5t-61.5 -68.5q-18 -35 -34.5 -89.5t-28.5 -115.5q-10 -47 -17.5 -91t-7.5 -81z" />
<glyph unicode="&#xe3;" horiz-adv-x="931" d="M68 283q0 66 9 138.5t23 131.5q23 100 54.5 187t80 149.5t113 98.5t154.5 36q57 0 106 -22.5t80 -73.5q2 0 3 1t3 1l19 82h221l-197 -1012h-223l18 86q-2 0 -4 1t-4 1q-88 -100 -213 -100q-70 0 -115.5 22.5t-74.5 62.5t-41 93t-12 117zM279 1233q59 100 121 143t128 43 q35 0 68 -13t63.5 -28.5t59.5 -29t53 -13.5q29 0 58.5 17.5t72.5 66.5l109 -67q-55 -109 -118 -149t-126 -40q-37 0 -69.5 12.5t-63.5 28t-59.5 28.5t-55.5 13q-29 0 -58.5 -19.5t-74.5 -66.5zM299 338q0 -29 5 -53.5t17.5 -43t35 -29.5t57.5 -11q53 0 91 36.5t56 86.5 q14 37 28.5 87t24 99t15.5 92t6 70q0 55 -24.5 94t-84.5 39q-43 0 -77.5 -21.5t-61.5 -68.5q-18 -35 -34.5 -89.5t-28.5 -115.5q-10 -47 -17.5 -91t-7.5 -81z" />
<glyph unicode="&#xe4;" horiz-adv-x="931" d="M68 283q0 66 9 138.5t23 131.5q23 100 54.5 187t80 149.5t113 98.5t154.5 36q57 0 106 -22.5t80 -73.5q2 0 3 1t3 1l19 82h221l-197 -1012h-223l18 86q-2 0 -4 1t-4 1q-88 -100 -213 -100q-70 0 -115.5 22.5t-74.5 62.5t-41 93t-12 117zM299 338q0 -29 5 -53.5t17.5 -43 t35 -29.5t57.5 -11q53 0 91 36.5t56 86.5q14 37 28.5 87t24 99t15.5 92t6 70q0 55 -24.5 94t-84.5 39q-43 0 -77.5 -21.5t-61.5 -68.5q-18 -35 -34.5 -89.5t-28.5 -115.5q-10 -47 -17.5 -91t-7.5 -81zM319 1178l43 221h216l-41 -221h-218zM688 1178l43 221h215l-41 -221 h-217z" />
<glyph unicode="&#xe5;" horiz-adv-x="931" d="M68 283q0 66 9 138.5t23 131.5q23 100 54.5 187t80 149.5t113 98.5t154.5 36q57 0 106 -22.5t80 -73.5q2 0 3 1t3 1l19 82h221l-197 -1012h-223l18 86q-2 0 -4 1t-4 1q-88 -100 -213 -100q-70 0 -115.5 22.5t-74.5 62.5t-41 93t-12 117zM299 338q0 -29 5 -53.5t17.5 -43 t35 -29.5t57.5 -11q53 0 91 36.5t56 86.5q14 37 28.5 87t24 99t15.5 92t6 70q0 55 -24.5 94t-84.5 39q-43 0 -77.5 -21.5t-61.5 -68.5q-18 -35 -34.5 -89.5t-28.5 -115.5q-10 -47 -17.5 -91t-7.5 -81zM418 1262q0 49 18.5 94t51 78.5t77.5 54t101 20.5q78 0 131 -49t53 -123 q0 -51 -18.5 -96t-52.5 -78t-79 -52t-98 -19q-80 0 -132 49t-52 121zM543 1282q0 -31 21 -50.5t54 -19.5q41 0 73 30t32 75q0 29 -20.5 49t-53.5 20q-41 0 -73.5 -31.5t-32.5 -72.5z" />
<glyph unicode="&#xe6;" horiz-adv-x="1431" d="M37 223q0 78 24.5 147.5t78 123t137 85t204.5 31.5q6 0 26.5 -1t43 -2t44 -3t30.5 -2q8 41 16 81t0 70.5t-35.5 49t-89.5 18.5q-53 0 -97 -18.5t-83 -71.5l-160 103q63 102 162.5 146t220.5 44q72 0 149.5 -22.5t118.5 -69.5q49 41 114.5 67.5t145.5 26.5 q164 0 245 -72.5t81 -187.5q0 -90 -35 -156.5t-96 -111.5t-146 -66.5t-186 -23.5h-49t-51 2q-10 -51 -10 -88q0 -55 29.5 -91t91.5 -36q53 0 102 27.5t84 78.5l170 -106q-63 -102 -162.5 -153.5t-222.5 -51.5q-215 0 -283 149q-68 -82 -166 -115.5t-190 -33.5 q-129 0 -192.5 61.5t-63.5 171.5zM262 285q0 -41 28.5 -68t94.5 -27t120 41t75 136l14 69q-35 4 -74 4h-67q-86 -4 -138.5 -41t-52.5 -114zM883 590q20 -2 40.5 -2h39.5q119 2 171 41t52 102q0 39 -30 62.5t-83 23.5q-82 0 -125 -60.5t-65 -166.5z" />
<glyph unicode="&#xe7;" horiz-adv-x="811" d="M59 334q0 41 5.5 93t14.5 106.5t23.5 105.5t30.5 92q27 63 65 117.5t89 93.5t115.5 61.5t144.5 22.5q117 0 199.5 -58.5t99.5 -168.5l-197 -94q-10 59 -43 85.5t-76 26.5q-53 0 -90 -24.5t-63.5 -64.5t-43 -94t-28.5 -112q-8 -45 -14 -86t-6 -78q0 -74 25.5 -114.5 t92.5 -40.5q53 0 96.5 27.5t73.5 74.5l175 -96q-53 -94 -137.5 -151.5t-196.5 -65.5q-10 -25 -21.5 -45.5t-15.5 -30.5q92 -10 123.5 -55t31.5 -99q0 -33 -13 -67.5t-43 -62t-75 -46t-108 -18.5q-31 0 -89.5 7t-107.5 36q10 16 28.5 52t27.5 52q41 -20 75.5 -26t61.5 -6 q39 0 66.5 19t27.5 54q0 27 -19.5 43.5t-54.5 16.5q-14 0 -22 -2l-51 39l69 143q-72 10 -120 42t-75.5 78t-39 102t-11.5 116z" />
<glyph unicode="&#xe8;" horiz-adv-x="892" d="M63 328q0 111 23 234.5t77 227t145 171t229 67.5q162 0 243.5 -73.5t81.5 -186.5q0 -92 -34.5 -159.5t-99 -112.5t-154 -66.5t-195.5 -21.5h-42t-44 2q-6 -41 -6 -78q0 -57 28.5 -95t90.5 -38q47 0 99 25.5t91 76.5l176 -104q-68 -102 -168 -154.5t-225 -52.5 q-166 0 -241 92t-75 246zM324 1485l182 78l186 -389l-114 -62zM328 592q16 -4 37.5 -3t37.5 1q129 2 180.5 43t51.5 100q0 39 -29 63.5t-82 24.5q-78 0 -126 -62.5t-70 -166.5z" />
<glyph unicode="&#xe9;" horiz-adv-x="892" d="M63 328q0 111 23 234.5t77 227t145 171t229 67.5q162 0 243.5 -73.5t81.5 -186.5q0 -92 -34.5 -159.5t-99 -112.5t-154 -66.5t-195.5 -21.5h-42t-44 2q-6 -41 -6 -78q0 -57 28.5 -95t90.5 -38q47 0 99 25.5t91 76.5l176 -104q-68 -102 -168 -154.5t-225 -52.5 q-166 0 -241 92t-75 246zM328 592q16 -4 37.5 -3t37.5 1q129 2 180.5 43t51.5 100q0 39 -29 63.5t-82 24.5q-78 0 -126 -62.5t-70 -166.5zM467 1169l240 377l188 -76l-309 -358z" />
<glyph unicode="&#xea;" horiz-adv-x="892" d="M63 328q0 111 23 234.5t77 227t145 171t229 67.5q162 0 243.5 -73.5t81.5 -186.5q0 -92 -34.5 -159.5t-99 -112.5t-154 -66.5t-195.5 -21.5h-42t-44 2q-6 -41 -6 -78q0 -57 28.5 -95t90.5 -38q47 0 99 25.5t91 76.5l176 -104q-68 -102 -168 -154.5t-225 -52.5 q-166 0 -241 92t-75 246zM227 1180l346 311h146l221 -313l-106 -78l-216 211l-313 -213zM328 592q16 -4 37.5 -3t37.5 1q129 2 180.5 43t51.5 100q0 39 -29 63.5t-82 24.5q-78 0 -126 -62.5t-70 -166.5z" />
<glyph unicode="&#xeb;" horiz-adv-x="892" d="M63 328q0 111 23 234.5t77 227t145 171t229 67.5q162 0 243.5 -73.5t81.5 -186.5q0 -92 -34.5 -159.5t-99 -112.5t-154 -66.5t-195.5 -21.5h-42t-44 2q-6 -41 -6 -78q0 -57 28.5 -95t90.5 -38q47 0 99 25.5t91 76.5l176 -104q-68 -102 -168 -154.5t-225 -52.5 q-166 0 -241 92t-75 246zM301 1178l43 221h215l-41 -221h-217zM328 592q16 -4 37.5 -3t37.5 1q129 2 180.5 43t51.5 100q0 39 -29 63.5t-82 24.5q-78 0 -126 -62.5t-70 -166.5zM670 1178l43 221h215l-41 -221h-217z" />
<glyph unicode="&#xec;" horiz-adv-x="548" d="M150 0l196 1014h225l-196 -1014h-225zM188 1485l183 78l186 -389l-115 -62z" />
<glyph unicode="&#xed;" horiz-adv-x="507" d="M31 0l196 1014h226l-197 -1014h-225zM287 1169l239 377l189 -76l-309 -358z" />
<glyph unicode="&#xee;" horiz-adv-x="573" d="M78 1180l346 311h145l222 -313l-107 -78l-215 211l-313 -213zM88 0l197 1014h225l-197 -1014h-225z" />
<glyph unicode="&#xef;" horiz-adv-x="565" d="M92 0l197 1014h225l-197 -1014h-225zM141 1178l43 221h215l-41 -221h-217zM510 1178l43 221h215l-41 -221h-217z" />
<glyph unicode="&#xf0;" horiz-adv-x="931" d="M70 313q0 137 29.5 257t86 210t137.5 142.5t185 52.5q27 0 58.5 -5t62 -19.5t58.5 -37t44 -59.5q12 70 9 146.5t-25 136.5l-133 -93l-52 84l136 93q-31 49 -89.5 74.5t-127.5 31.5l49 168q127 -12 204.5 -58t124.5 -106q39 29 78 53.5t78 53.5l55 -82 q-41 -27 -80.5 -54.5t-80.5 -54.5q29 -63 41 -138t12 -161q0 -55 -7.5 -134t-19.5 -152q-20 -135 -57 -257t-97.5 -214.5t-147.5 -146.5t-208 -54q-88 0 -149.5 25.5t-100.5 69.5t-56 102.5t-17 125.5zM289 342q0 -68 34.5 -107.5t102.5 -39.5q80 0 127 71q14 20 30.5 57 t32 85.5t27.5 103.5t16 111q4 72 -34.5 109.5t-104.5 37.5q-63 0 -107 -42t-72 -104.5t-40 -138t-12 -143.5z" />
<glyph unicode="&#xf1;" horiz-adv-x="940" d="M0 -2l199 1016h221l-19 -99h7q49 53 112.5 81t122.5 28q135 0 193.5 -81t35.5 -214q0 -4 -8 -47t-20.5 -109.5t-27.5 -147.5t-30.5 -162t-30 -151.5t-22.5 -113.5h-225q8 39 20.5 101.5t26.5 135t28.5 147.5t26 135.5t18.5 100t7 41.5q10 66 -12.5 108t-98.5 42 q-68 0 -115 -48t-63 -122l-123 -641h-223zM246 1233q59 100 121.5 143t128.5 43q35 0 67.5 -13t63 -28.5t59.5 -29t53 -13.5q29 0 58.5 17.5t72.5 66.5l109 -67q-55 -109 -117.5 -149t-126.5 -40q-37 0 -69.5 12.5t-63.5 28t-59.5 28.5t-55.5 13q-29 0 -58.5 -19.5 t-74.5 -66.5z" />
<glyph unicode="&#xf2;" horiz-adv-x="909" d="M72 328q0 53 9 123.5t23 136.5q45 205 149 320.5t294 115.5q86 0 148.5 -26.5t102.5 -70.5t58 -103.5t18 -125.5q0 -61 -9 -130.5t-23 -129.5q-23 -104 -56.5 -187t-86 -141.5t-127 -90t-179.5 -31.5q-96 0 -158.5 27.5t-98.5 74.5t-50 108.5t-14 129.5zM293 356 q0 -31 2 -59.5t14.5 -51t37 -36.5t69.5 -14q63 0 104 42t58 89q14 37 27 84t22.5 95t14.5 92t5 75q0 66 -29 107.5t-90 41.5q-72 0 -119 -57t-81 -186q-12 -49 -21.5 -112t-13.5 -110zM330 1485l182 78l186 -389l-114 -62z" />
<glyph unicode="&#xf3;" horiz-adv-x="909" d="M72 328q0 53 9 123.5t23 136.5q45 205 149 320.5t294 115.5q86 0 148.5 -26.5t102.5 -70.5t58 -103.5t18 -125.5q0 -61 -9 -130.5t-23 -129.5q-23 -104 -56.5 -187t-86 -141.5t-127 -90t-179.5 -31.5q-96 0 -158.5 27.5t-98.5 74.5t-50 108.5t-14 129.5zM293 356 q0 -31 2 -59.5t14.5 -51t37 -36.5t69.5 -14q63 0 104 42t58 89q14 37 27 84t22.5 95t14.5 92t5 75q0 66 -29 107.5t-90 41.5q-72 0 -119 -57t-81 -186q-12 -49 -21.5 -112t-13.5 -110zM502 1169l239 377l189 -76l-309 -358z" />
<glyph unicode="&#xf4;" horiz-adv-x="909" d="M72 328q0 53 9 123.5t23 136.5q45 205 149 320.5t294 115.5q86 0 148.5 -26.5t102.5 -70.5t58 -103.5t18 -125.5q0 -61 -9 -130.5t-23 -129.5q-23 -104 -56.5 -187t-86 -141.5t-127 -90t-179.5 -31.5q-96 0 -158.5 27.5t-98.5 74.5t-50 108.5t-14 129.5zM240 1180 l346 311h145l221 -313l-106 -78l-215 211l-314 -213zM293 356q0 -31 2 -59.5t14.5 -51t37 -36.5t69.5 -14q63 0 104 42t58 89q14 37 27 84t22.5 95t14.5 92t5 75q0 66 -29 107.5t-90 41.5q-72 0 -119 -57t-81 -186q-12 -49 -21.5 -112t-13.5 -110z" />
<glyph unicode="&#xf5;" horiz-adv-x="909" d="M72 328q0 53 9 123.5t23 136.5q45 205 149 320.5t294 115.5q86 0 148.5 -26.5t102.5 -70.5t58 -103.5t18 -125.5q0 -61 -9 -130.5t-23 -129.5q-23 -104 -56.5 -187t-86 -141.5t-127 -90t-179.5 -31.5q-96 0 -158.5 27.5t-98.5 74.5t-50 108.5t-14 129.5zM238 1235 q59 100 121 143t128 43q35 0 68 -13t63.5 -28.5t59.5 -29t53 -13.5q29 0 58.5 17.5t72.5 66.5l109 -67q-55 -109 -117.5 -149t-126.5 -40q-37 0 -69.5 12.5t-63.5 28t-59.5 28.5t-55.5 13q-29 0 -58.5 -19.5t-74.5 -66.5zM293 356q0 -31 2 -59.5t14.5 -51t37 -36.5t69.5 -14 q63 0 104 42t58 89q14 37 27 84t22.5 95t14.5 92t5 75q0 66 -29 107.5t-90 41.5q-72 0 -119 -57t-81 -186q-12 -49 -21.5 -112t-13.5 -110z" />
<glyph unicode="&#xf6;" horiz-adv-x="909" d="M72 328q0 53 9 123.5t23 136.5q45 205 149 320.5t294 115.5q86 0 148.5 -26.5t102.5 -70.5t58 -103.5t18 -125.5q0 -61 -9 -130.5t-23 -129.5q-23 -104 -56.5 -187t-86 -141.5t-127 -90t-179.5 -31.5q-96 0 -158.5 27.5t-98.5 74.5t-50 108.5t-14 129.5zM293 356 q0 -31 2 -59.5t14.5 -51t37 -36.5t69.5 -14q63 0 104 42t58 89q14 37 27 84t22.5 95t14.5 92t5 75q0 66 -29 107.5t-90 41.5q-72 0 -119 -57t-81 -186q-12 -49 -21.5 -112t-13.5 -110zM297 1178l43 221h215l-41 -221h-217zM666 1178l43 221h215l-41 -221h-217z" />
<glyph unicode="&#xf7;" d="M53 514l37 178h879l-35 -178h-881zM299 205q0 33 14.5 62.5t38 52t54 36t63.5 13.5q51 0 83 -33t32 -80q0 -33 -14.5 -62.5t-38 -52t-54 -36t-61.5 -13.5q-51 0 -84 33t-33 80zM444 946q0 33 14.5 61.5t38 51t54.5 36t61 13.5q51 0 84 -32t33 -81q0 -31 -14.5 -60.5 t-39 -52t-55 -35.5t-61.5 -13q-51 0 -83 32.5t-32 79.5z" />
<glyph unicode="&#xf8;" horiz-adv-x="909" d="M49 6l76 100q-31 45 -42 102.5t-11 119.5q0 53 9 123.5t23 136.5q45 205 149 320.5t294 115.5q72 0 125 -17.5t94 -50.5q18 27 37.5 51.5t40.5 51.5q16 -10 30.5 -21.5t30.5 -23.5l-86 -115q29 -41 42 -93t13 -108q0 -61 -9 -130.5t-23 -129.5q-23 -104 -56.5 -187 t-86 -141.5t-127 -90t-179.5 -31.5q-74 0 -127 16t-90 45l-67 -88zM293 330l332 440q-16 23 -39 37t-58 14q-72 0 -119 -57t-81 -186q-12 -49 -21.5 -112t-13.5 -110v-26zM315 233q14 -18 37 -28t64 -10q63 0 104 42t58 89q14 37 27 84t22.5 95t14.5 92t5 75z" />
<glyph unicode="&#xf9;" horiz-adv-x="944" d="M78 283q0 4 8 47t20.5 109.5t29 148.5t31.5 162.5t28.5 150.5t21.5 115h225q-8 -39 -20 -101.5t-26.5 -136t-29 -147.5t-25.5 -135.5t-18.5 -101.5t-7.5 -42q-12 -68 12.5 -108.5t98.5 -40.5q66 0 114 48t62 124l125 641h223l-196 -1016h-226l23 100h-6 q-49 -55 -113.5 -82.5t-124.5 -27.5q-135 0 -193.5 81t-35.5 212zM324 1485l182 78l186 -389l-114 -62z" />
<glyph unicode="&#xfa;" horiz-adv-x="944" d="M78 283q0 4 8 47t20.5 109.5t29 148.5t31.5 162.5t28.5 150.5t21.5 115h225q-8 -39 -20 -101.5t-26.5 -136t-29 -147.5t-25.5 -135.5t-18.5 -101.5t-7.5 -42q-12 -68 12.5 -108.5t98.5 -40.5q66 0 114 48t62 124l125 641h223l-196 -1016h-226l23 100h-6 q-49 -55 -113.5 -82.5t-124.5 -27.5q-135 0 -193.5 81t-35.5 212zM500 1169l239 377l189 -76l-310 -358z" />
<glyph unicode="&#xfb;" horiz-adv-x="944" d="M78 283q0 4 8 47t20.5 109.5t29 148.5t31.5 162.5t28.5 150.5t21.5 115h225q-8 -39 -20 -101.5t-26.5 -136t-29 -147.5t-25.5 -135.5t-18.5 -101.5t-7.5 -42q-12 -68 12.5 -108.5t98.5 -40.5q66 0 114 48t62 124l125 641h223l-196 -1016h-226l23 100h-6 q-49 -55 -113.5 -82.5t-124.5 -27.5q-135 0 -193.5 81t-35.5 212zM248 1180l346 311h145l222 -313l-107 -78l-215 211l-313 -213z" />
<glyph unicode="&#xfc;" horiz-adv-x="944" d="M78 283q0 4 8 47t20.5 109.5t29 148.5t31.5 162.5t28.5 150.5t21.5 115h225q-8 -39 -20 -101.5t-26.5 -136t-29 -147.5t-25.5 -135.5t-18.5 -101.5t-7.5 -42q-12 -68 12.5 -108.5t98.5 -40.5q66 0 114 48t62 124l125 641h223l-196 -1016h-226l23 100h-6 q-49 -55 -113.5 -82.5t-124.5 -27.5q-135 0 -193.5 81t-35.5 212zM313 1178l43 221h215l-41 -221h-217zM682 1178l43 221h215l-41 -221h-217z" />
<glyph unicode="&#xfd;" horiz-adv-x="823" d="M-113 -227q49 6 92.5 19t83 40t74.5 69t68 105q-4 43 -13.5 123t-20.5 178.5t-23.5 206t-24.5 204.5t-21.5 175t-15.5 119h236q4 -53 9 -122t10 -132.5t8 -112.5t3 -63q4 -72 7 -158t-7 -182h6q41 76 81 169t77 193.5t72 204.5t65 203h238q-63 -176 -128 -340 t-130.5 -311.5t-132 -274.5t-131.5 -225q-94 -141 -216 -215t-262 -68zM420 1169l239 377l189 -76l-309 -358z" />
<glyph unicode="&#xfe;" horiz-adv-x="921" d="M-61 -403q23 117 50 265t59 312t64.5 336t64.5 336t60.5 312.5t51.5 266.5h223q-2 -8 -9 -45t-17.5 -90t-21.5 -112.5t-21.5 -112.5t-17.5 -91t-7 -44q2 0 2 -1t2 -1q47 47 101.5 71.5t119.5 24.5q68 0 114 -21.5t73.5 -60.5t40 -93t12.5 -118q0 -31 -2 -65.5t-7.5 -71.5 t-10.5 -72t-11 -63q-18 -92 -47 -177t-75 -149.5t-115.5 -103.5t-170.5 -39q-51 0 -103 22.5t-83 67.5h-6l-92 -483h-221zM313 334q0 -53 26 -92t83 -39q80 0 131 76q25 39 43 100t31 127q8 41 13 80t7 69q0 29 -3 56.5t-14.5 49t-33.5 35t-59 13.5q-47 0 -89 -32t-71 -109 q-23 -59 -36 -127t-22 -131q-6 -41 -6 -76z" />
<glyph unicode="&#xff;" horiz-adv-x="823" d="M-113 -227q49 6 92.5 19t83 40t74.5 69t68 105q-4 43 -13.5 123t-20.5 178.5t-23.5 206t-24.5 204.5t-21.5 175t-15.5 119h236q4 -53 9 -122t10 -132.5t8 -112.5t3 -63q4 -72 7 -158t-7 -182h6q41 76 81 169t77 193.5t72 204.5t65 203h238q-63 -176 -128 -340 t-130.5 -311.5t-132 -274.5t-131.5 -225q-94 -141 -216 -215t-262 -68zM211 1178l43 221h215l-41 -221h-217zM580 1178l43 221h215l-41 -221h-217z" />
<glyph unicode="&#x131;" horiz-adv-x="450" d="M31 0l196 1014h226l-197 -1014h-225z" />
<glyph unicode="&#x152;" horiz-adv-x="1468" d="M115.5 274q-13.5 84 5.5 177l98 540q16 84 52 165t94.5 143.5t142.5 100.5t197 38q33 0 65.5 -4t60.5 -9h777l-43 -217h-539q-6 -29 -16.5 -81t-21.5 -109t-21.5 -109.5t-16.5 -81.5h475l-41 -213h-475l-78 -399h553l-41 -215h-706q-59 -12 -127 -12q-121 0 -203 37.5 t-130 101t-61.5 147.5zM346 368.5q0 -49.5 18.5 -84t57 -55t104.5 -20.5q45 0 76 14q8 45 22.5 122t33 169t38 192.5t38 192.5t32.5 169t22 122q-41 27 -98 27q-59 0 -101 -20.5t-69.5 -55.5t-45 -80t-25.5 -94l-93 -490q-10 -59 -10 -108.5z" />
<glyph unicode="&#x153;" horiz-adv-x="1439" d="M70 324q2 53 9 124.5t23 139.5q47 209 152.5 322.5t290.5 113.5q94 0 157.5 -30.5t100.5 -82.5q53 53 122.5 84t161.5 31q162 0 244 -72.5t82 -185.5q0 -92 -35 -159.5t-98 -112.5t-152.5 -66.5t-197.5 -21.5h-42t-44 2q-2 -16 -4 -35t-2 -37q0 -61 26.5 -101t91.5 -40 q47 0 99.5 26.5t91.5 77.5l176 -106q-68 -100 -168 -152.5t-225 -52.5q-92 0 -152.5 28.5t-95.5 79.5q-51 -53 -122 -81.5t-169 -28.5q-96 0 -158.5 28.5t-98.5 74.5t-50 106.5t-14 126.5zM289 330q0 -53 24.5 -94t100.5 -41q63 0 100 33.5t61 93.5q16 37 28.5 82t22 92 t14.5 93t5 83q0 66 -29 107.5t-90 41.5q-72 0 -119 -57t-81 -186q-6 -29 -13.5 -63t-12.5 -68.5t-8 -65.5t-3 -51zM879 590q16 -2 37.5 -2h37.5q129 2 181.5 44t52.5 101q0 39 -30 63.5t-83 24.5q-78 0 -126 -62.5t-70 -168.5z" />
<glyph unicode="&#x178;" horiz-adv-x="964" d="M207 1425h237q4 -18 15.5 -73.5t24 -119t22.5 -117.5t14 -73q10 -49 18.5 -111.5t14.5 -109.5h12q35 66 71 134.5t73 134.5q14 25 39.5 70.5t54 97t54.5 97.5t40 70h250q-23 -37 -64 -102.5t-91 -147t-105.5 -171t-105.5 -171t-91 -148.5t-63 -101l-115 -584h-225 q4 25 13 71t20.5 102t23.5 118.5t23.5 119t19.5 102.5t14 71q-47 211 -97 420.5t-97 420.5zM397 1520l41 221h221l-43 -221h-219zM768 1520l43 221h217l-41 -221h-219z" />
<glyph unicode="&#x192;" d="M-16 -143q2 6 12 31.5t22.5 56t22.5 56.5t12 32q74 -25 109 -25q63 0 98 57.5t57 174.5l97 444h-150l17 193h176l30 141q14 74 42 147.5t74 133t112.5 96.5t163.5 37q45 0 91 -8.5t81 -24.5l-62 -187q-37 16 -66.5 18.5t-58.5 2.5q-68 0 -103.5 -60.5t-53.5 -146.5 l-33 -149h180l-14 -193h-207q-2 -8 -9.5 -42t-16.5 -81t-20.5 -99t-21.5 -99.5t-17 -81t-9 -41.5q-20 -96 -49 -175t-72 -135.5t-101.5 -87t-138.5 -30.5q-41 0 -95 11t-99 34z" />
<glyph unicode="&#x2c6;" horiz-adv-x="903" d="M256 1180l346 311h146l221 -313l-107 -78l-215 211l-313 -213z" />
<glyph unicode="&#x2c7;" horiz-adv-x="903" d="M311 1415l107 84q8 -6 41 -36.5t69.5 -66.5t68.5 -66t40 -36l307 205l76 -86l-338 -307h-145z" />
<glyph unicode="&#x2d8;" horiz-adv-x="972" d="M354 1444h174q-4 -23 1.5 -47.5t17.5 -45t34.5 -34.5t53.5 -14q33 0 59.5 13t47 34.5t33.5 46t18 47.5h182q-12 -53 -39 -106.5t-71 -98.5t-106.5 -72.5t-144.5 -27.5t-135 28.5t-83.5 72.5t-39 98.5t-2.5 105.5z" />
<glyph unicode="&#x2d9;" horiz-adv-x="901" d="M473 1171l43 220h215l-41 -220h-217z" />
<glyph unicode="&#x2da;" horiz-adv-x="915" d="M418 1262q0 49 18.5 94t51 78.5t77.5 54t101 20.5q78 0 131 -49t53 -123q0 -51 -18.5 -96t-52.5 -78t-79 -52t-98 -19q-80 0 -132 49t-52 121zM543 1282q0 -31 21 -50.5t54 -19.5q41 0 73 30t32 75q0 29 -20.5 49t-53.5 20q-41 0 -73.5 -31.5t-32.5 -72.5z" />
<glyph unicode="&#x2db;" horiz-adv-x="817" d="M346 -236q2 49 32 107.5t97 136.5h133l2 -6q-59 -70 -81.5 -120t-24.5 -79q-2 -31 16.5 -47t52.5 -16q47 0 119 35l25 -119q-49 -29 -103.5 -41t-101.5 -12q-80 0 -125 44.5t-41 116.5z" />
<glyph unicode="&#x2dc;" horiz-adv-x="886" d="M256 1233q59 100 121.5 143t128.5 43q35 0 67.5 -13t63.5 -28.5t59.5 -29t53.5 -13.5q29 0 58.5 17.5t72.5 66.5l108 -67q-55 -109 -117.5 -149t-126.5 -40q-37 0 -69.5 12.5t-63 28t-59.5 28.5t-55 13q-29 0 -58.5 -19.5t-74.5 -66.5z" />
<glyph unicode="&#x2dd;" horiz-adv-x="940" d="M324 1169l239 377l189 -76l-310 -358zM627 1169l239 377l189 -76l-310 -358z" />
<glyph unicode="&#x3a9;" horiz-adv-x="1052" d="M-18 0q10 53 19 107.5t19 107.5h132l2 2q-37 33 -49.5 82t-12.5 98q2 37 6 80t15 90q16 70 30.5 145.5t30.5 161.5q12 68 29.5 133.5t42.5 131.5q53 135 160.5 217t285.5 82q96 0 167 -30t118 -80t69.5 -118.5t22.5 -148.5q0 -23 -2 -48.5t-6 -54.5q-14 -82 -30.5 -166.5 t-33.5 -179.5q-8 -49 -21 -105t-32.5 -110.5t-49.5 -100.5t-69 -77v-4h121q-10 -53 -20.5 -107.5t-20.5 -107.5h-393l47 231q47 12 79 43t52 72q25 61 39 117.5t29 126.5l67 354q6 29 8.5 49.5t2.5 44.5q0 72 -41 125.5t-136 53.5q-84 0 -136 -48.5t-77 -121.5 q-10 -29 -20 -69t-20 -95q-6 -33 -17.5 -92.5t-23 -121t-20.5 -109.5t-11 -58q-8 -35 -13.5 -74t0 -76t28 -66.5t69.5 -47.5l-47 -238h-389z" />
<glyph unicode="&#x3c0;" d="M27 0l198 1016h731l-196 -1016h-225l161 834h-284l-162 -834h-223z" />
<glyph unicode="&#x401;" horiz-adv-x="956" d="M45 0l277 1425h784l-43 -217h-551l-76 -381h475l-41 -213h-475l-76 -397h551l-41 -217h-784zM438 1520l41 221h221l-43 -221h-219zM809 1520l43 221h217l-41 -221h-219z" />
<glyph unicode="&#x402;" horiz-adv-x="1236" d="M143 1214l39 209h924l-41 -209h-391l-74 -362h4q55 53 135 82t152 29q152 0 221.5 -87.5t63.5 -246.5q-14 -342 -137.5 -506t-385.5 -164h-25.5t-27.5 2l37 197q78 4 131 29.5t88 75.5t52.5 126t23.5 180q4 80 -29 134.5t-119 54.5q-72 0 -134 -50.5t-103 -136.5 l-111 -571h-231l235 1214h-297z" />
<glyph unicode="&#x403;" horiz-adv-x="933" d="M45 0l277 1425h776l-43 -217h-543q-2 -10 -13.5 -65.5t-27.5 -139t-35.5 -187t-41 -211t-41 -212t-36 -187.5t-27.5 -139.5t-14 -66.5h-231zM623 1589l370 258l125 -153l-420 -209z" />
<glyph unicode="&#x404;" horiz-adv-x="995" d="M90 336q0 27 4 60.5t10 72.5l19 96q18 94 37.5 190.5t36.5 190.5q18 96 51 185.5t90 157t142 107.5t206 40q186 0 283.5 -93.5t107.5 -244.5q-57 -16 -113.5 -32.5t-113.5 -33.5q-2 78 -45 130t-123 52q-55 0 -95 -17t-67.5 -46t-44 -64.5t-26.5 -72.5q-25 -90 -43 -189 h378l-39 -213h-380q-4 -31 -10.5 -61.5t-12.5 -58.5q-4 -25 -8 -51.5t-6 -49.5q-4 -33 2 -65.5t24.5 -59t51 -43t83.5 -16.5q82 0 143.5 49t90.5 139l221 -71q-53 -158 -170 -247t-301 -89q-195 0 -289 97t-94 251z" />
<glyph unicode="&#x405;" horiz-adv-x="1019" d="M33 242l205 129q35 -72 93 -115t150 -43q59 0 103.5 18.5t73 49t43 70.5t14.5 81q0 78 -51.5 117t-145.5 67q-164 53 -239.5 132t-75.5 208q0 109 33.5 197t96 151.5t150.5 97.5t197 34q156 0 252 -64.5t137 -163.5l-199 -137q-78 135 -221 135q-90 0 -143 -59.5 t-53 -138.5q0 -43 17 -71t50 -48.5t78 -36.5t98 -35q154 -53 215.5 -135t61.5 -205q0 -111 -35 -201t-101.5 -154.5t-160.5 -99t-211 -34.5q-176 0 -280.5 71.5t-151.5 182.5z" />
<glyph unicode="&#x406;" horiz-adv-x="491" d="M45 0l279 1425h231l-276 -1425h-234z" />
<glyph unicode="&#x407;" horiz-adv-x="491" d="M45 0l279 1425h231l-276 -1425h-234zM170 1544l43 221h215l-41 -221h-217zM539 1544l43 221h215l-41 -221h-217z" />
<glyph unicode="&#x408;" horiz-adv-x="851" d="M-47 160l178 135q25 -41 65 -66.5t87 -25.5q168 0 206 194l201 1028h232l-203 -1036q-41 -209 -147.5 -304t-292.5 -95q-104 0 -189.5 42t-136.5 128z" />
<glyph unicode="&#x409;" horiz-adv-x="1595" d="M-51 152q70 25 123 66.5t91 103t65.5 145.5t50.5 192l149 766h696l-110 -565h182q178 0 275.5 -90t97.5 -244q0 -119 -36 -216t-100.5 -165.5t-156.5 -106.5t-203 -38h-457l234 1210h-252l-100 -518q-33 -164 -74 -290t-100.5 -215t-140.5 -144t-191 -76zM889 217h196 q55 0 101.5 20.5t79 57.5t51 86t18.5 108q0 82 -48 119t-128 37h-188z" />
<glyph unicode="&#x40a;" horiz-adv-x="1581" d="M27 0l276 1425h234l-113 -575h346l113 575h231l-113 -575h189q178 0 272 -90t94 -244q0 -119 -34.5 -214t-99 -162.5t-154.5 -103.5t-203 -36h-459l121 635h-346l-121 -635h-233zM879 217h196q113 0 180.5 72.5t67.5 189.5q0 80 -48 117t-128 37h-189z" />
<glyph unicode="&#x40b;" horiz-adv-x="1257" d="M152 1214l38 209h934q-4 -16 -9 -44.5t-11 -59.5t-12.5 -59.5t-8.5 -45.5h-401l-70 -362h4q31 29 69 50.5t78 34.5t78.5 20.5t71.5 7.5q160 0 228.5 -90.5t40.5 -235.5l-123 -639h-236l113 573q6 35 5 68t-15.5 57.5t-44 40t-80.5 15.5q-72 0 -136.5 -47.5t-103.5 -128.5 l-115 -578h-231q8 47 26.5 143.5t42 215t48 248.5t48 249t42 214t29.5 144h-299z" />
<glyph unicode="&#x40c;" horiz-adv-x="1054" d="M41 0l276 1425h228l-113 -591h98q33 0 67 8t67.5 31.5t67.5 68.5t69 119l166 360h233l-188 -413q-47 -92 -99.5 -162t-136.5 -103q78 -29 110 -97t38 -173l22 -473h-223l-18 414q-2 63 -17.5 105t-40 65.5t-58.5 33t-71 9.5h-127q-6 -25 -15 -74t-20.5 -110.5t-25 -129 t-24.5 -129t-21.5 -110.5t-14.5 -74h-229zM637 1589l371 258l125 -153l-420 -209z" />
<glyph unicode="&#x40e;" horiz-adv-x="980" d="M68 -12q8 47 17 95t19 97h54q70 0 115.5 36t99.5 132q-41 270 -81 537.5t-81 537.5h231q2 -25 9.5 -86t16.5 -141t18.5 -169t17.5 -168t15 -139t9 -83q2 0 4.5 1t4.5 1q41 80 78.5 160t76.5 159q53 119 109.5 234t109.5 231h238q-145 -283 -285.5 -563t-288.5 -561 q-53 -100 -100 -160.5t-95 -94.5t-96 -45t-102 -11h-114zM430 1753h174q-4 -23 1 -47.5t17.5 -45t35 -34.5t53.5 -14q33 0 59.5 13t47 34.5t33.5 46.5t17 47h183q-12 -53 -39 -106.5t-71 -98.5t-106.5 -72.5t-144.5 -27.5t-135 28.5t-84 72.5t-39 98.5t-2 105.5z" />
<glyph unicode="&#x40f;" horiz-adv-x="1107" d="M45 0l274 1425h232l-232 -1204h381l232 1204h231l-274 -1425h-316l-63 -322h-211l63 322h-317z" />
<glyph unicode="&#x410;" horiz-adv-x="1064" d="M-72 0l686 1425h224l131 -1425h-242l-16 307h-394l-141 -307h-248zM410 516h288l-14 285l-12 305h-8l-125 -301z" />
<glyph unicode="&#x411;" horiz-adv-x="1032" d="M35 0l276 1425h707l-43 -217h-471l-68 -348h195q170 0 264 -87t94 -238q0 -117 -34.5 -214.5t-99 -169t-155 -111.5t-202.5 -40h-463zM309 217h197q111 0 177.5 71t68.5 204q0 78 -47.5 115.5t-126.5 37.5h-185z" />
<glyph unicode="&#x412;" horiz-adv-x="1060" d="M43 0q12 59 33.5 172t49.5 251t57.5 289.5t56 290t48 251t34.5 171.5h403q172 0 264 -77.5t92 -233.5q0 -141 -58 -234.5t-179 -134.5q0 -2 -1 -3t-1 -5q80 -29 113.5 -99.5t33.5 -158.5q-4 -133 -50 -225t-121 -148.5t-171 -81t-201 -24.5h-403zM315 215h205 q57 0 102.5 23.5t75 61.5t45 87t15.5 100q0 72 -42 111t-120 39h-197zM438 840h158q53 0 100 15t82 45t55.5 74t20.5 101q0 72 -45 104.5t-123 32.5h-174z" />
<glyph unicode="&#x413;" horiz-adv-x="933" d="M45 0l277 1425h776l-43 -217h-543q-2 -10 -13.5 -65.5t-27.5 -139t-35.5 -187t-41 -211t-41 -212t-36 -187.5t-27.5 -139.5t-14 -66.5h-231z" />
<glyph unicode="&#x414;" horiz-adv-x="1230" d="M-111 -293q23 123 45.5 242t45.5 241l102 23q39 29 69.5 63.5t55 83t45 109.5t41.5 143l190 813h781q-59 -305 -119 -608t-119 -608h113l-99 -502h-198l59 293h-760q-14 -74 -27.5 -146.5t-29.5 -146.5h-195zM340 209h461q47 254 96 501.5t98 501.5h-354l-145 -620 q-29 -125 -66 -221.5t-90 -161.5z" />
<glyph unicode="&#x415;" horiz-adv-x="956" d="M45 0l277 1425h784l-43 -217h-551l-76 -381h475l-41 -213h-475l-76 -397h551l-41 -217h-784z" />
<glyph unicode="&#x416;" horiz-adv-x="1615" d="M-47 0l201 465q45 104 104 173t145 97q-66 29 -95 99.5t-36 164.5q-8 106 -14 212t-12 210h217l29 -393q4 -66 20 -105.5t42 -61t56.5 -29t63.5 -7.5h96q29 150 57.5 300.5t57.5 299.5h229q-29 -150 -57.5 -300t-57.5 -300h84q98 0 159 51.5t106 151.5l176 393h225 l-164 -379q-51 -117 -114.5 -195.5t-141.5 -111.5q76 -29 107.5 -97.5t38.5 -172.5q6 -117 12 -232.5t14 -232.5h-229l-21 406q-4 63 -18 104t-38 65.5t-55.5 33.5t-68.5 9h-110q-31 -156 -61 -309t-58 -309h-230q29 156 58.5 309.5t60.5 308.5h-84q-43 0 -83 -7 t-74.5 -29.5t-67.5 -64.5t-64 -111q-47 -102 -89 -203t-85 -203h-231z" />
<glyph unicode="&#x417;" horiz-adv-x="950" d="M4 309q55 16 109.5 33.5t109.5 36.5q12 -84 61.5 -128t129.5 -44q43 0 84 19.5t72.5 57.5t51 92t19.5 122q0 72 -43 107.5t-104 35.5h-115q8 49 17.5 98t19.5 99h110q98 0 155.5 67.5t57.5 171.5q0 68 -48 101.5t-109 33.5q-76 0 -135.5 -42t-96.5 -117q-49 23 -97 47 t-95 47q70 150 186.5 219.5t263.5 69.5q195 0 282 -91.5t87 -250.5q0 -47 -10.5 -97.5t-36 -97.5t-67.5 -87t-105 -67q70 -37 98.5 -99t28.5 -132q0 -113 -34 -208t-97.5 -165.5t-154.5 -110.5t-204 -40q-176 0 -278.5 80t-112.5 239z" />
<glyph unicode="&#x418;" horiz-adv-x="1169" d="M43 0l276 1425h230l-182 -933q2 0 3 -1.5t3 -1.5q37 53 75.5 109.5t79.5 116.5q57 86 121 179t128.5 186.5t126 181.5t116.5 163h213q-68 -358 -136.5 -712.5t-138.5 -712.5h-229q45 229 89 458.5t91 461.5h-6q-31 -47 -63.5 -93.5t-67.5 -93.5l-512 -733h-217z" />
<glyph unicode="&#x419;" horiz-adv-x="1169" d="M43 0l276 1425h230l-182 -933q2 0 3 -1.5t3 -1.5q37 53 75.5 109.5t79.5 116.5q57 86 121 179t128.5 186.5t126 181.5t116.5 163h213q-68 -358 -136.5 -712.5t-138.5 -712.5h-229q45 229 89 458.5t91 461.5h-6q-31 -47 -63.5 -93.5t-67.5 -93.5l-512 -733h-217zM535 1819 h174q-4 -23 1 -47.5t17 -45t34.5 -35t53.5 -14.5q33 0 59.5 13.5t47 35t34 46t17.5 47.5h182q-12 -53 -38.5 -106.5t-71 -98.5t-106.5 -73t-144 -28t-135.5 29t-84 73t-39 98t-1.5 106z" />
<glyph unicode="&#x41a;" horiz-adv-x="1054" d="M41 0l276 1425h228l-113 -591h98q33 0 67 8t67.5 31.5t67.5 68.5t69 119l166 360h233l-188 -413q-47 -92 -99.5 -162t-136.5 -103q78 -29 110 -97t38 -173l22 -473h-223l-18 414q-2 63 -17.5 105t-40 65.5t-58.5 33t-71 9.5h-127q-6 -25 -15 -74t-20.5 -110.5t-25 -129 t-24.5 -129t-21.5 -110.5t-14.5 -74h-229z" />
<glyph unicode="&#x41b;" horiz-adv-x="1118" d="M-51 147q68 27 119 65t89 95.5t65.5 139t49.5 200.5l152 778h756l-277 -1425h-227l233 1208h-317l-103 -528q-35 -176 -75.5 -300t-98 -207t-132 -131t-177.5 -73z" />
<glyph unicode="&#x41c;" horiz-adv-x="1355" d="M41 0l276 1425h220q27 -135 57.5 -269t56.5 -269l62 -283h8l201 344l288 477h226l-277 -1425h-231l162 831q-2 0 -4.5 1.5t-4.5 1.5q-27 -47 -52 -91.5t-54 -89.5q-59 -100 -119.5 -199.5t-124.5 -197.5h-164l-86 383l-39 195h-8l-162 -834h-231z" />
<glyph unicode="&#x41d;" horiz-adv-x="1112" d="M45 0l277 1425h231l-117 -598h398l116 598h230l-277 -1425h-231l121 616h-398l-119 -616h-231z" />
<glyph unicode="&#x41e;" horiz-adv-x="1056" d="M94 291q-12 88 6 184l103 520q14 76 47 154t89 141.5t141 104.5t206 41q113 0 194 -40t128 -105.5t62 -148.5t-1 -169l-100 -541q-41 -211 -152.5 -327.5t-312.5 -116.5q-129 0 -215 40t-134.5 107.5t-60.5 155.5zM328 360.5q4 -45.5 24.5 -79t59.5 -52t98 -18.5 q86 0 143.5 54t75.5 149l111 577q6 27 2 65t-23.5 72.5t-58.5 58t-103 23.5q-57 0 -96 -21.5t-64.5 -53t-40 -68.5t-20.5 -70l-102 -538q-10 -53 -6 -98.5z" />
<glyph unicode="&#x41f;" horiz-adv-x="1099" d="M45 0l277 1425h843l-276 -1425h-230l234 1210h-381l-236 -1210h-231z" />
<glyph unicode="&#x420;" horiz-adv-x="1015" d="M45 0l277 1425h413q172 0 269.5 -82.5t97.5 -250.5q0 -123 -35 -224.5t-99.5 -172t-158.5 -109.5t-211 -39h-215l-107 -547h-231zM426 766h192q111 0 181.5 72.5t70.5 205.5q0 164 -180 164h-178z" />
<glyph unicode="&#x421;" horiz-adv-x="1007" d="M94 346q0 33 4 69t11 74q4 25 8 48.5t8 46.5q16 78 32.5 159.5t30.5 159.5q20 100 53 196.5t89.5 171.5t143.5 120t214 45q182 0 280.5 -95.5t108.5 -242.5q-57 -16 -113.5 -32.5t-113.5 -33.5q-4 76 -47 129t-125 53q-66 0 -109 -25.5t-70.5 -67.5t-44 -94t-28.5 -105 q-25 -106 -43 -215t-41 -218q-6 -35 -10 -65.5t-4 -63.5q0 -66 32.5 -109.5t128.5 -43.5q82 0 143.5 48t90.5 138q55 -16 111.5 -33.5t111.5 -35.5q-49 -150 -164.5 -243t-300.5 -93q-104 0 -178 27.5t-120 74.5t-67.5 112.5t-21.5 143.5z" />
<glyph unicode="&#x422;" horiz-adv-x="872" d="M160 1212l43 213h852l-41 -213h-309l-238 -1212h-231l235 1212h-311z" />
<glyph unicode="&#x423;" horiz-adv-x="980" d="M68 -12q8 47 17 95t19 97h54q70 0 115.5 36t99.5 132q-41 270 -81 537.5t-81 537.5h231q2 -25 9.5 -86t16.5 -141t18.5 -169t17.5 -168t15 -139t9 -83q2 0 4.5 1t4.5 1q41 80 78.5 160t76.5 159q53 119 109.5 234t109.5 231h238q-145 -283 -285.5 -563t-288.5 -561 q-53 -100 -100 -160.5t-95 -94.5t-96 -45t-102 -11h-114z" />
<glyph unicode="&#x424;" horiz-adv-x="1327" d="M125 535q0 102 17.5 206.5t50.5 200.5q59 184 192 291.5t342 116.5l18 75h226l-15 -75q100 -6 170 -41t113 -91.5t62.5 -130t19.5 -157.5q0 -100 -14.5 -197.5t-42.5 -185.5q-29 -94 -75 -172t-112.5 -134.5t-156 -88t-203.5 -33.5l-23 -119h-227l22 119q-20 4 -36.5 7 t-32.5 9q-160 35 -227.5 137.5t-67.5 262.5zM354 580q0 -102 37 -173t139 -79l156 813q-76 -2 -133 -42t-98 -106q-25 -41 -43.5 -91t-30.5 -105.5t-18.5 -110.5t-8.5 -106zM760 328q88 8 147.5 52t100.5 122q35 66 58.5 165t27.5 216q6 51 -3.5 98t-31 82t-57 55.5 t-84.5 22.5z" />
<glyph unicode="&#x425;" horiz-adv-x="1003" d="M-74 0q129 186 257 368.5t257 368.5q-53 174 -106 344t-107 344h254l117 -454h6l295 454h268q-121 -174 -240.5 -344t-242.5 -344q59 -186 116.5 -368.5t114.5 -368.5h-256q-33 127 -64.5 252t-66.5 252l-53 -72q-8 -12 -30.5 -46t-50 -77t-60.5 -92t-60.5 -93t-50 -78 t-30.5 -46h-267z" />
<glyph unicode="&#x426;" horiz-adv-x="1144" d="M45 0l272 1425h234l-234 -1208h381q10 47 28.5 142.5t41.5 214t48.5 247.5t48 248t40 213t27.5 143h231l-233 -1210h133l-96 -510h-201l57 295h-778z" />
<glyph unicode="&#x427;" horiz-adv-x="1050" d="M186 934l93 493h227l-84 -444q-10 -53 -11 -97t14 -76t48 -49.5t90 -17.5q47 0 104.5 15.5t104.5 42.5q6 27 15.5 76t21.5 109.5t25.5 127t24.5 126.5t20.5 110.5t15.5 76.5h229l-276 -1425h-230q4 25 13.5 72t21 104.5t23.5 119.5t23.5 119.5t19.5 103.5t14 73 q-63 -29 -130.5 -43t-121.5 -14q-188 0 -259.5 104t-35.5 293z" />
<glyph unicode="&#x428;" horiz-adv-x="1570" d="M45 0l277 1425h227l-234 -1206h316l231 1206h230l-234 -1206h316l235 1206h227l-276 -1425h-1315z" />
<glyph unicode="&#x429;" horiz-adv-x="1615" d="M41 0l272 1425h230l-234 -1208h318l233 1208h230l-234 -1208h320l233 1208h229q-59 -305 -117.5 -605t-117.5 -605h129l-96 -508h-199l57 293h-1253z" />
<glyph unicode="&#x42a;" horiz-adv-x="1261" d="M164 1208l41 217h583l-108 -565h182q178 0 274.5 -90t96.5 -244q0 -119 -35 -216t-99.5 -165.5t-155.5 -106.5t-204 -38h-458l233 1208h-350zM553 217h199q55 0 101 20.5t79 57.5t50 86t17 108q0 82 -47 119t-127 37h-188z" />
<glyph unicode="&#x42b;" horiz-adv-x="1447" d="M45 0l277 1425h231l-109 -565h183q178 0 274 -90t96 -244q0 -129 -38.5 -228t-109.5 -164.5t-167 -99.5t-213 -34h-424zM317 217h197q109 0 177.5 68.5t68.5 191.5q0 168 -172 168h-187zM1016 0l276 1425h232l-277 -1425h-231z" />
<glyph unicode="&#x42c;" horiz-adv-x="1005" d="M31 0q2 6 13 68.5t30.5 160t43 221t49.5 254t49.5 255t43 225t32.5 166t15 75.5h232q-8 -37 -23.5 -115.5t-33 -166.5t-33 -167t-21.5 -116h182q180 0 276.5 -90t96.5 -244q0 -129 -39 -228t-106.5 -164.5t-160.5 -99.5t-204 -34h-442zM303 217h195q109 0 179.5 68.5 t70.5 191.5q0 168 -175 168h-186z" />
<glyph unicode="&#x42d;" horiz-adv-x="972" d="M27 319l227 64q4 -76 46 -124t120 -48q51 0 91 16.5t67.5 44t46 62.5t28.5 74q14 51 25.5 103t21.5 105h-381l43 213h379l19 99q6 31 10 62.5t4 60.5q0 68 -41 117t-135 49q-72 0 -127 -43.5t-84 -122.5l-215 75q55 147 169 229.5t288 82.5q96 0 167.5 -27t119 -74 t71 -111.5t23.5 -140.5q0 -31 -9.5 -97t-21.5 -130l-72 -377q-18 -98 -52 -187t-92 -156.5t-144.5 -107.5t-208.5 -40q-180 0 -276.5 89t-106.5 240z" />
<glyph unicode="&#x42e;" horiz-adv-x="1437" d="M33 0l276 1425h234q-31 -152 -59.5 -300t-59.5 -298h154q10 47 19 93.5t21 93.5q23 88 57 164.5t87 134t130 90.5t183 33q180 0 276.5 -89.5t102.5 -234.5q0 -57 -8 -120.5t-21 -123.5q-6 -33 -16 -86t-20.5 -109.5t-20.5 -110.5t-18 -87q-25 -109 -59 -199t-87 -154.5 t-134 -99t-198 -34.5q-188 0 -283 95t-95 247q0 23 2 46t6 46q8 49 16 95t19 99h-152l-119 -616h-233zM725 354q0 -66 38 -108.5t126 -42.5q100 0 150 67.5t73 167.5q27 133 56.5 270.5t50.5 266.5q10 45 10 82q0 70 -41 115t-127 45q-55 0 -91 -18.5t-60.5 -47.5t-39 -65.5 t-24.5 -73.5q-18 -74 -31 -138q-6 -33 -16.5 -85t-21.5 -109t-20 -111.5t-16 -89.5q-6 -39 -11 -66.5t-5 -58.5z" />
<glyph unicode="&#x42f;" horiz-adv-x="1077" d="M-6 0l156 432q33 82 78.5 149.5t129.5 92.5q-74 37 -111.5 108.5t-37.5 163.5q0 123 40 213t105.5 149.5t151.5 88t180 28.5h461l-273 -1425h-231l119 608h-127q-33 0 -68 -10t-67.5 -34.5t-63 -67.5t-55.5 -109l-143 -387h-244zM442 973q0 -86 50.5 -122t132.5 -36h176 l78 395h-197q-106 0 -173 -60t-67 -177z" />
<glyph unicode="&#x430;" horiz-adv-x="931" d="M68 283q0 66 9 138.5t23 131.5q23 100 54.5 187t80 149.5t113 98.5t154.5 36q57 0 106 -22.5t80 -73.5q2 0 3 1t3 1l19 82h221l-197 -1012h-223l18 86q-2 0 -4 1t-4 1q-88 -100 -213 -100q-70 0 -115.5 22.5t-74.5 62.5t-41 93t-12 117zM299 338q0 -29 5 -53.5t17.5 -43 t35 -29.5t57.5 -11q53 0 91 36.5t56 86.5q14 37 28.5 87t24 99t15.5 92t6 70q0 55 -24.5 94t-84.5 39q-43 0 -77.5 -21.5t-61.5 -68.5q-18 -35 -34.5 -89.5t-28.5 -115.5q-10 -47 -17.5 -91t-7.5 -81z" />
<glyph unicode="&#x431;" horiz-adv-x="913" d="M61 315q0 41 12.5 154t41.5 256q20 104 47.5 214t66.5 208q41 104 97.5 166.5t135.5 97.5t182.5 49.5t238.5 24.5l14 -189q-96 -10 -171 -19t-132 -30.5t-100 -63.5t-74 -118q-29 -70 -49 -168l4 -6q51 47 113.5 62.5t109.5 15.5q72 0 122 -24.5t82 -64.5t46 -91.5 t14 -102.5q2 -55 -6 -118.5t-20 -123.5q-25 -109 -60 -193.5t-88 -143t-128 -90t-177 -31.5q-88 0 -149.5 24.5t-99.5 68.5t-55.5 104.5t-17.5 131.5zM291 365q-4 -72 22.5 -122t98.5 -50q68 0 110 49q18 20 37 58t33 84t24.5 98.5t14.5 101.5q6 33 4 65.5t-15.5 59t-38 44 t-61.5 17.5t-66.5 -15.5t-54.5 -43.5q-18 -23 -35.5 -58t-31.5 -80q-16 -49 -26.5 -108t-14.5 -100z" />
<glyph unicode="&#x432;" horiz-adv-x="913" d="M57 276q0 37 4.5 73t12.5 71l55 246q14 68 44 132t79 115.5t118 82t165 30.5t159.5 -22.5t101.5 -57.5t53 -77t15 -83q0 -66 -33.5 -131t-111.5 -90v-2q72 -25 101.5 -80t29.5 -114t-25.5 -127t-81 -124.5t-142.5 -93t-210 -36.5q-154 0 -244 73.5t-90 214.5zM279 317 q0 -53 31.5 -88.5t103.5 -35.5q57 0 97 19t63.5 47t33.5 57.5t10 52.5q0 51 -37.5 75.5t-107.5 24.5h-49q10 37 17.5 80t17.5 80h45q59 0 100 27.5t41 72.5q0 39 -29.5 68.5t-93.5 29.5q-39 0 -68.5 -14t-51 -38.5t-36 -55.5t-22.5 -64l-55 -249q-10 -47 -10 -89z" />
<glyph unicode="&#x433;" horiz-adv-x="856" d="M45 240q0 94 33 156.5t87 104.5t124.5 68.5t148.5 46.5q98 23 137 51.5t39 75.5q0 41 -30.5 59.5t-75.5 18.5q-66 0 -122 -28.5t-97 -75.5l-142 121q66 90 159 140t222 50q66 0 123.5 -15.5t99.5 -47t66.5 -78.5t26.5 -111q0 -78 -28 -134t-79 -98t-120.5 -73t-153.5 -53 q-35 -10 -69 -19.5t-60.5 -25t-42 -40t-15.5 -61.5q0 -43 35 -62.5t90 -19.5t119 29t101 76l153 -109q-68 -98 -167 -148t-240 -52q-141 0 -231.5 62.5t-90.5 191.5z" />
<glyph unicode="&#x434;" horiz-adv-x="925" d="M66 299q0 80 13 164t34.5 159.5t50.5 136t59 95.5q47 59 110.5 92t151.5 33q47 0 108.5 -19.5t100.5 -74.5l6 2q12 61 12.5 108t0.5 45q0 51 -10.5 92.5t-35 71t-64.5 46t-101 16.5q-66 0 -146 -23q-6 47 -14 92t-14 92q119 33 223 33q100 0 170 -28.5t114 -82t64.5 -129 t20.5 -169.5q0 -96 -16.5 -249t-59.5 -333q-27 -106 -64 -194.5t-90 -153t-124.5 -100t-166.5 -35.5q-94 0 -158.5 27.5t-103.5 71.5t-55 100.5t-16 113.5zM289 342q0 -29 5 -56.5t18.5 -48t37 -32.5t60.5 -12q39 0 65.5 16t48.5 45q23 29 43.5 78t35.5 103t24.5 106.5 t9.5 87.5q0 59 -27.5 101t-101.5 42t-123 -65q-18 -25 -34.5 -66t-31 -92t-22.5 -104.5t-8 -102.5z" />
<glyph unicode="&#x435;" horiz-adv-x="892" d="M63 328q0 111 23 234.5t77 227t145 171t229 67.5q162 0 243.5 -73.5t81.5 -186.5q0 -92 -34.5 -159.5t-99 -112.5t-154 -66.5t-195.5 -21.5h-42t-44 2q-6 -41 -6 -78q0 -57 28.5 -95t90.5 -38q47 0 99 25.5t91 76.5l176 -104q-68 -102 -168 -154.5t-225 -52.5 q-166 0 -241 92t-75 246zM328 592q16 -4 37.5 -3t37.5 1q129 2 180.5 43t51.5 100q0 39 -29 63.5t-82 24.5q-78 0 -126 -62.5t-70 -166.5z" />
<glyph unicode="&#x436;" horiz-adv-x="1802" d="M-6 174l164 100q14 -43 46 -64.5t68 -21.5q45 0 86 33t73 96.5t51.5 153.5t19.5 207q0 61 -25.5 100t-77.5 39q-37 0 -73.5 -17.5t-65.5 -58.5l-135 111q47 80 124 126t177 46q145 0 216 -82t71 -221q0 -16 -3.5 -45t-7.5 -58q4 0 9 -4q61 94 112 192.5t105 203.5h174 l-117 -607q2 0 4 -1t4 -1q25 51 50.5 96.5t50.5 92.5q51 94 97 173t98 137t116.5 91t155.5 33q104 0 173.5 -47t92.5 -139l-162 -97q-16 43 -51 63.5t-70 20.5q-43 0 -83 -32.5t-71.5 -95t-51 -153.5t-21.5 -210q0 -66 22.5 -102.5t81.5 -36.5q37 0 81 18t75 68 q41 -25 77 -49.5t75 -49.5q-47 -88 -128 -140t-200 -52q-158 0 -224.5 83t-66.5 212q0 10 1 27.5t7 60.5q-4 0 -5 1t-3 1q-57 -98 -103 -185.5t-98 -189.5h-186l121 596q-2 2 -6 2q-29 -59 -54.5 -106.5t-52 -94.5t-59.5 -98t-78 -119q-59 -88 -134 -139t-198 -51 q-111 0 -177.5 47t-90.5 137z" />
<glyph unicode="&#x437;" horiz-adv-x="829" d="M2 199l186 92q16 -53 47 -80t87 -27q66 0 114.5 40t48.5 118q0 53 -28.5 73.5t-81.5 20.5h-88l35 168h98q66 0 104.5 36t38.5 95q0 41 -31.5 66.5t-85.5 25.5q-102 0 -167 -100l-162 102q63 100 156.5 147.5t215.5 47.5q135 0 221.5 -66.5t86.5 -185.5q0 -68 -37 -138.5 t-127 -109.5v-2q53 -25 74.5 -66.5t21.5 -90.5q0 -86 -31.5 -156t-87 -118t-129 -74.5t-155.5 -26.5q-254 0 -324 209z" />
<glyph unicode="&#x438;" horiz-adv-x="944" d="M78 283q0 4 8 47t20.5 109.5t29 148.5t31.5 162.5t28.5 150.5t21.5 115h225q-8 -39 -20 -101.5t-26.5 -136t-29 -147.5t-25.5 -135.5t-18.5 -101.5t-7.5 -42q-12 -68 12.5 -108.5t98.5 -40.5q66 0 114 48t62 124l125 641h223l-196 -1016h-226l23 100h-6 q-49 -55 -113.5 -82.5t-124.5 -27.5q-135 0 -193.5 81t-35.5 212z" />
<glyph unicode="&#x439;" horiz-adv-x="944" d="M78 283q0 4 8 47t20.5 109.5t29 148.5t31.5 162.5t28.5 150.5t21.5 115h225q-8 -39 -20 -101.5t-26.5 -136t-29 -147.5t-25.5 -135.5t-18.5 -101.5t-7.5 -42q-12 -68 12.5 -108.5t98.5 -40.5q66 0 114 48t62 124l125 641h223l-196 -1016h-226l23 100h-6 q-49 -55 -113.5 -82.5t-124.5 -27.5q-135 0 -193.5 81t-35.5 212zM346 1444h174q-4 -23 1 -47.5t17.5 -45t35 -34.5t53.5 -14q33 0 59.5 13t47 34.5t33.5 46t17 47.5h183q-12 -53 -39 -106.5t-71 -98.5t-106.5 -72.5t-144.5 -27.5t-135 28.5t-84 72.5t-39 98.5t-2 105.5z " />
<glyph unicode="&#x43a;" horiz-adv-x="907" d="M16 0l195 1012h223l-80 -412h74q25 0 49.5 4t48 19.5t47 45t45.5 79.5l121 264h228l-138 -295q-35 -74 -81 -124t-105 -67q66 -16 90.5 -69.5t28.5 -128.5l26 -328h-215l-14 260q-6 98 -44 127t-97 29h-101l-79 -416h-222z" />
<glyph unicode="&#x43b;" horiz-adv-x="940" d="M-45 143q61 16 104 48t72 79t48.5 111.5t35.5 146.5l92 486h637l-194 -1014h-220l156 815h-217q-4 -20 -13.5 -71.5t-20.5 -110t-21.5 -109.5t-14.5 -71q-25 -117 -59.5 -202t-84.5 -142.5t-115.5 -90t-151.5 -45.5q-2 12 -6.5 36t-10.5 49.5t-10 49t-6 35.5z" />
<glyph unicode="&#x43c;" horiz-adv-x="1144" d="M18 0l197 1014h201l100 -344q2 -10 11.5 -41t18.5 -65t18 -64.5t11 -40.5h5q6 12 28.5 45t49 70.5t49 70.5t28.5 43l226 326h206l-196 -1014h-223l104 541h-6l-121 -185q-6 -10 -23.5 -34.5t-38 -54t-38 -55.5t-23.5 -36h-147q-4 12 -12.5 42t-18.5 62.5t-19.5 62.5 t-11.5 42l-45 156h-4l-104 -541h-222z" />
<glyph unicode="&#x43d;" horiz-adv-x="935" d="M18 0l197 1014h223l-80 -412h293l80 412h221l-196 -1014h-221l81 424h-292l-82 -424h-224z" />
<glyph unicode="&#x43e;" horiz-adv-x="909" d="M72 328q0 53 9 123.5t23 136.5q45 205 149 320.5t294 115.5q86 0 148.5 -26.5t102.5 -70.5t58 -103.5t18 -125.5q0 -61 -9 -130.5t-23 -129.5q-23 -104 -56.5 -187t-86 -141.5t-127 -90t-179.5 -31.5q-96 0 -158.5 27.5t-98.5 74.5t-50 108.5t-14 129.5zM293 356 q0 -31 2 -59.5t14.5 -51t37 -36.5t69.5 -14q63 0 104 42t58 89q14 37 27 84t22.5 95t14.5 92t5 75q0 66 -29 107.5t-90 41.5q-72 0 -119 -57t-81 -186q-12 -49 -21.5 -112t-13.5 -110z" />
<glyph unicode="&#x43f;" horiz-adv-x="940" d="M0 -2l199 1016h221l-19 -99h7q49 53 112.5 81t122.5 28q135 0 193.5 -81t35.5 -214q0 -4 -8 -47t-20.5 -109.5t-27.5 -147.5t-30.5 -162t-30 -151.5t-22.5 -113.5h-225q8 39 20.5 101.5t26.5 135t28.5 147.5t26 135.5t18.5 100t7 41.5q10 66 -12.5 108t-98.5 42 q-68 0 -115 -48t-63 -122l-123 -641h-223z" />
<glyph unicode="&#x440;" horiz-adv-x="921" d="M-61 -403q66 356 135 708t137 709h223q-4 -23 -8 -42.5t-8 -41.5q2 0 2 -1t2 -1q47 47 101.5 71.5t119.5 24.5q68 0 114 -21.5t73.5 -60.5t40 -93t12.5 -118q0 -31 -2 -65.5t-7.5 -71.5t-10.5 -72t-11 -63q-18 -92 -47 -177t-75 -149.5t-115.5 -103.5t-170.5 -39 q-51 0 -103 22.5t-83 67.5h-6l-92 -483h-221zM313 334q0 -53 26 -92t83 -39q80 0 131 76q25 39 43 100t31 127q8 41 13 80t7 69q0 29 -3 56.5t-14.5 49t-33.5 35t-59 13.5q-47 0 -89 -32t-71 -109q-23 -59 -36 -127t-22 -131q-6 -41 -6 -76z" />
<glyph unicode="&#x441;" horiz-adv-x="811" d="M59 334q0 41 5.5 93t14.5 106.5t23.5 105.5t30.5 92q27 63 65 117.5t89 93.5t115.5 61.5t144.5 22.5q117 0 199.5 -58.5t99.5 -168.5l-197 -94q-10 59 -43 85.5t-76 26.5q-53 0 -90 -24.5t-63.5 -64.5t-43 -94t-28.5 -112q-8 -45 -14 -86t-6 -78q0 -74 25.5 -114.5 t92.5 -40.5q53 0 96.5 27.5t73.5 74.5l175 -96q-57 -100 -149.5 -159.5t-219.5 -59.5q-94 0 -155.5 28.5t-98.5 76.5t-51.5 110.5t-14.5 128.5z" />
<glyph unicode="&#x442;" horiz-adv-x="1462" d="M35 0l196 1012h224q-6 -23 -10.5 -47.5t-10.5 -49.5h8q47 47 109.5 77t122.5 30q92 0 143 -35t76 -96h2q61 59 131 96t148 37q68 0 112.5 -19.5t72 -53t39 -78t11.5 -93.5q0 -57 -12 -114l-131 -666h-224l129 657q2 10 3.5 19.5t1.5 19.5q0 37 -23 68t-72 31 q-80 0 -131 -50.5t-67 -126.5l-121 -618h-225q45 221 74.5 375.5t54.5 281.5q2 10 3 21.5t1 21.5q0 41 -21.5 71t-77.5 30q-76 0 -128 -47t-68 -142l-119 -612h-221z" />
<glyph unicode="&#x443;" horiz-adv-x="823" d="M-113 -227q49 6 92.5 19t83 40t74.5 69t68 105q-4 43 -13.5 123t-20.5 178.5t-23.5 206t-24.5 204.5t-21.5 175t-15.5 119h236q4 -53 9 -122t10 -132.5t8 -112.5t3 -63q4 -72 7 -158t-7 -182h6q41 76 81 169t77 193.5t72 204.5t65 203h238q-63 -176 -128 -340 t-130.5 -311.5t-132 -274.5t-131.5 -225q-94 -141 -216 -215t-262 -68z" />
<glyph unicode="&#x444;" horiz-adv-x="1183" d="M70 358q6 115 35.5 234t80.5 207q59 111 162 166t250 63l82 410h217l-82 -412q135 -10 214 -71.5t101 -155.5q6 -23 8.5 -46.5t2.5 -52.5q0 -49 -5.5 -104t-15.5 -110.5t-23.5 -108.5t-31.5 -98q-53 -135 -163.5 -213t-287.5 -82l-73 -381h-219l73 379q-135 10 -213 71.5 t-102 153.5q-8 37 -9 74.5t-1 76.5zM289 358q0 -70 32.5 -115.5t112.5 -56.5l125 633q-98 -6 -150.5 -65.5t-78.5 -155.5q-16 -49 -26.5 -117.5t-14.5 -122.5zM651 186q49 2 87 20.5t67 49.5q37 41 58.5 101.5t35.5 136.5q8 47 14.5 90t6.5 82q0 37 -11 71 q-12 33 -42.5 55.5t-90.5 26.5z" />
<glyph unicode="&#x445;" horiz-adv-x="868" d="M-72 0l404 518q-20 45 -46 111.5t-51.5 136.5t-51 135.5t-46.5 112.5h254l92 -320h2l211 320h267q-98 -125 -195.5 -249t-196.5 -249q20 -47 48 -115.5t55.5 -142.5t55.5 -142.5t48 -115.5h-254l-98 334h-2q-23 -31 -53.5 -75t-62.5 -92t-63.5 -92t-51.5 -75h-265z" />
<glyph unicode="&#x446;" horiz-adv-x="978" d="M78 233q0 27 3 52.5t7 54.5q35 170 65.5 337t65.5 335h223l-120 -617q-6 -29 -7.5 -63.5t8 -63t33 -48t68.5 -19.5q39 0 67.5 15t50 41t36 58.5t24.5 65.5q8 25 13.5 48.5t9.5 47.5l104 535h223l-125 -633q-6 -31 -12 -64.5t-6 -66.5q0 -45 22.5 -82t75.5 -53l-78 -377 h-182l41 260q-41 14 -66.5 46t-31.5 73h-2q-29 -35 -65 -58.5t-72.5 -39t-73.5 -21.5t-66 -6q-66 0 -109.5 19.5t-71.5 52t-40 76.5t-12 95z" />
<glyph unicode="&#x447;" horiz-adv-x="880" d="M113 688l63 326h217l-59 -299q-31 -156 133 -156q27 0 67.5 11.5t69.5 27.5q2 8 8 40t14.5 75t17.5 92t18.5 93t15.5 76t8 40h217l-194 -1014h-220l78 401q-37 -16 -86 -26t-80 -10q-174 0 -245.5 83.5t-42.5 239.5z" />
<glyph unicode="&#x448;" horiz-adv-x="1447" d="M70 233q0 57 12 113q4 20 14 71.5t23.5 119t29 142.5t28.5 142.5t22.5 118.5t13.5 72h223q-31 -166 -63.5 -329t-63.5 -329q-2 -10 -3 -18t-1 -19q0 -41 22.5 -69.5t71.5 -28.5q78 0 130.5 48t68.5 126l119 619h225l-129 -658q-2 -10 -2 -19v-20q0 -102 98 -102 q160 0 195 186q2 14 12 61.5t22.5 111t26 135t25.5 135t21.5 109.5t11.5 61h223l-197 -1012h-223l18 96h-8q-47 -47 -108.5 -75.5t-120.5 -28.5q-92 0 -144.5 33.5t-76.5 95.5q-61 -59 -131 -95t-148 -36q-68 0 -114 19.5t-73.5 53t-38.5 77.5t-11 93z" />
<glyph unicode="&#x449;" horiz-adv-x="1472" d="M72 231q0 55 12 115q33 166 64.5 333t66.5 333h223l-129 -658q-2 -10 -3 -18t-1 -19q0 -45 25.5 -71.5t70.5 -26.5q78 0 129.5 48t67.5 126l121 619h225q-45 -221 -75.5 -375t-53.5 -283q-2 -8 -3 -14t-1 -14q0 -53 20.5 -89t90.5 -36q74 0 121 57t63 141l117 613h223 l-127 -654q-12 -57 -13 -77.5t-1 -32.5q0 -45 19 -82t73 -53l-86 -377h-176l49 260q-41 14 -66.5 46t-32.5 73h-2q-25 -31 -60.5 -54.5t-73.5 -39t-75.5 -22.5t-68.5 -7q-92 0 -142.5 33.5t-74.5 95.5h-2q-61 -59 -131 -95t-148 -36q-68 0 -112.5 19.5t-72.5 53t-39 76.5 t-11 92z" />
<glyph unicode="&#x44a;" horiz-adv-x="1058" d="M66 821l36 193h486q-18 -92 -37 -181.5t-35 -181.5h172q96 0 157.5 -27.5t97.5 -68.5t50.5 -91t14.5 -95q0 -59 -23.5 -127t-76 -124.5t-137.5 -93t-208 -36.5q-152 2 -236.5 73.5t-93.5 200.5v29q0 25 2.5 49.5t8.5 52.5l82 428h-260zM457 348q-10 -63 21.5 -109 t109.5 -46q51 0 86 15t57.5 38.5t32.5 52.5t10 57q0 47 -33.5 77t-105.5 30h-158z" />
<glyph unicode="&#x44b;" horiz-adv-x="1294" d="M70 287q0 33 6 73l16 99l109 555h223q-18 -92 -36.5 -181.5t-35.5 -181.5h172q96 0 157.5 -27.5t97.5 -68.5t49.5 -91t13.5 -95q0 -59 -22.5 -127t-74 -124.5t-136.5 -93t-208 -36.5q-160 2 -245.5 79.5t-85.5 219.5zM293 348q-10 -63 21.5 -109t109.5 -46q51 0 87 15 t57.5 38.5t31.5 52.5t10 57q0 47 -34.5 77t-106.5 30h-156zM874 0q51 256 101.5 507t99.5 507h219l-196 -1014h-224z" />
<glyph unicode="&#x44c;" horiz-adv-x="905" d="M78 287q0 33 6 73l16 99l109 555h223q-18 -92 -36.5 -181.5t-35.5 -181.5h172q96 0 158 -27.5t97.5 -68.5t49 -91t13.5 -95q0 -59 -22.5 -127t-74 -124.5t-136.5 -93t-207 -36.5q-160 2 -246 79.5t-86 219.5zM301 348q-10 -63 21.5 -109t109.5 -46q51 0 87 15t57.5 38.5 t31.5 52.5t10 57q0 47 -34.5 77t-106.5 30h-155z" />
<glyph unicode="&#x44d;" horiz-adv-x="835" d="M14 207l193 92q12 -51 48 -77.5t79 -26.5q94 0 140 62t69 167h-289l35 174h284q4 23 5.5 39t1.5 33q0 59 -27 99t-94 40q-43 0 -93.5 -20.5t-84.5 -69.5l-158 108q57 96 143 147.5t209 51.5q88 0 149.5 -25.5t101.5 -70.5t58.5 -107.5t18.5 -136.5q0 -123 -22.5 -247 t-78 -223t-146.5 -162.5t-228 -63.5q-123 0 -207 56t-107 161z" />
<glyph unicode="&#x44e;" horiz-adv-x="1247" d="M12 0l197 1012h221l-80 -412h117q16 70 37.5 128t50.5 106q55 92 138 141t198 49q94 0 155.5 -29.5t95.5 -80t47 -115t13 -133.5q-2 -51 -12 -117t-21 -117q-23 -102 -56.5 -185t-85.5 -140.5t-124 -88t-170 -30.5q-84 0 -142.5 26.5t-95 70.5t-53 100.5t-16.5 115.5 q0 35 3 59.5t7 63.5h-121q-23 -106 -42 -213t-40 -211h-221zM643 336q0 -27 4 -52.5t16.5 -46t35 -32.5t59.5 -12q35 0 62.5 15t47.5 40q23 25 43.5 76t37 112.5t26.5 127t10 118.5q0 57 -27 98t-88 41q-63 0 -108 -49q-27 -29 -47.5 -81t-36.5 -118q-8 -33 -14.5 -67.5 t-11.5 -67t-7 -60.5t-2 -42z" />
<glyph unicode="&#x44f;" horiz-adv-x="905" d="M-14 0l102 272q23 59 57.5 113.5t98.5 77.5q-63 33 -90 85t-27 120q0 86 29.5 151.5t82 108.5t121 64.5t148.5 21.5h412q-8 -43 -23.5 -123t-34 -178.5t-38 -207t-38 -206.5t-34 -178t-23.5 -121h-223l78 408h-109q-51 0 -93 -31t-77 -121l-96 -256h-223zM346 680 q0 -94 127 -94h145q2 18 9.5 51t14.5 66.5t13.5 66.5t10.5 51h-144q-31 0 -61.5 -6t-56 -21.5t-42 -43t-16.5 -70.5z" />
<glyph unicode="&#x451;" horiz-adv-x="892" d="M63 328q0 111 23 234.5t77 227t145 171t229 67.5q162 0 243.5 -73.5t81.5 -186.5q0 -92 -34.5 -159.5t-99 -112.5t-154 -66.5t-195.5 -21.5h-42t-44 2q-6 -41 -6 -78q0 -57 28.5 -95t90.5 -38q47 0 99 25.5t91 76.5l176 -104q-68 -102 -168 -154.5t-225 -52.5 q-166 0 -241 92t-75 246zM303 1192l43 221h215l-41 -221h-217zM328 592q16 -4 37.5 -3t37.5 1q129 2 180.5 43t51.5 100q0 39 -29 63.5t-82 24.5q-78 0 -126 -62.5t-70 -166.5zM672 1192l43 221h215l-41 -221h-217z" />
<glyph unicode="&#x452;" horiz-adv-x="980" d="M37 0q57 293 113.5 580.5t111.5 580.5h-117q6 37 13.5 75t15.5 75h117l35 176h225l-35 -176h348q-6 -37 -13 -75t-15 -75h-347q-14 -66 -26 -130t-25 -130h4q53 53 120 82t132 29q70 0 116 -22.5t73.5 -62.5t40 -96.5t12.5 -123.5q0 -45 -3 -94.5t-11 -102.5 q-16 -121 -46 -217t-75 -164q-53 -80 -137 -123t-218 -45h-30.5t-32.5 2l37 191q66 0 110.5 18t73.5 55t47.5 94.5t32.5 137.5q14 68 17.5 108.5t3.5 69.5q0 72 -25 118t-100 46q-49 0 -84 -23.5t-60.5 -63.5t-43 -90.5t-27.5 -105.5l-103 -518h-225z" />
<glyph unicode="&#x453;" horiz-adv-x="856" d="M45 240q0 94 33 156.5t87 104.5t124.5 68.5t148.5 46.5q98 23 137 51.5t39 75.5q0 41 -30.5 59.5t-75.5 18.5q-66 0 -122 -28.5t-97 -75.5l-142 121q66 90 159 140t222 50q66 0 123.5 -15.5t99.5 -47t66.5 -78.5t26.5 -111q0 -78 -28 -134t-79 -98t-120.5 -73t-153.5 -53 q-35 -10 -69 -19.5t-60.5 -25t-42 -40t-15.5 -61.5q0 -43 35 -62.5t90 -19.5t119 29t101 76l153 -109q-68 -98 -167 -148t-240 -52q-141 0 -231.5 62.5t-90.5 191.5zM479 1169l240 377l188 -76l-309 -358z" />
<glyph unicode="&#x454;" horiz-adv-x="835" d="M59 330q0 51 5.5 104t15.5 103q16 98 51 186t91.5 155.5t136 107.5t188.5 40q117 0 199.5 -58.5t99.5 -168.5l-197 -94q-25 109 -108 108q-92 0 -144.5 -59.5t-77.5 -157.5h295l-32 -174h-293q-4 -16 -4 -31.5v-32.5q0 -78 26.5 -119.5t104.5 -41.5q45 0 87 27.5t70 80.5 l175 -96q-57 -100 -149.5 -159.5t-219.5 -59.5q-92 0 -153.5 28.5t-98.5 75.5t-52.5 108.5t-15.5 127.5z" />
<glyph unicode="&#x455;" horiz-adv-x="858" d="M10 211l183 96q29 -59 74.5 -89t117.5 -30q31 0 59.5 8.5t52 25t38 41t14.5 54.5q0 25 -13.5 42.5t-36 28.5t-53 19.5t-63.5 18.5q-49 14 -95 32.5t-81 47.5t-55.5 70.5t-20.5 101.5q0 82 32 147.5t84 109.5t121.5 67.5t145.5 23.5q125 0 209 -53t119 -146q-8 -4 -34 -19 t-53.5 -32.5t-53 -34t-33.5 -20.5q-20 55 -65.5 78.5t-100.5 23.5q-72 0 -110 -36.5t-38 -79.5q0 -20 16.5 -36t41 -28t55.5 -20.5t59 -16.5q49 -12 95.5 -30.5t81 -48t56 -72.5t21.5 -105q0 -84 -29.5 -151.5t-84 -113.5t-130 -70.5t-167.5 -24.5q-141 2 -232.5 59 t-126.5 162z" />
<glyph unicode="&#x456;" horiz-adv-x="450" d="M31 0l196 1014h226l-197 -1014h-225zM266 1212l41 213h225l-40 -213h-226z" />
<glyph unicode="&#x457;" horiz-adv-x="450" d="M31 0l196 1014h226l-197 -1014h-225zM86 1178l43 221h215l-41 -221h-217zM455 1178l43 221h215l-41 -221h-217z" />
<glyph unicode="&#x458;" horiz-adv-x="471" d="M-188 -406l41 207q4 0 23.5 -1t23.5 1q66 0 93 42t40 102l207 1071h225l-219 -1127q-27 -135 -111 -216t-227 -81h-18.5h-30t-29.5 1t-18 1zM279 1212l40 213h226l-41 -213h-225z" />
<glyph unicode="&#x459;" horiz-adv-x="1380" d="M-37 145q57 18 99 48t72 74t49.5 104.5t33.5 140.5l96 502h609l-72 -363h172q96 0 158.5 -27.5t98.5 -68.5t49 -91t13 -95q0 -59 -22.5 -127t-74.5 -124.5t-137 -93t-208 -36.5q-104 0 -174 33.5t-108.5 92t-47 138.5t10.5 174l79 395h-182q-16 -96 -34.5 -190 t-39.5 -187q-47 -225 -145 -334.5t-260 -136.5zM788 317q0 -53 34 -88.5t102 -35.5q51 0 85.5 15t57.5 38.5t33 52.5t10 57q0 47 -35 77t-106 30h-158l-20 -115q-2 -10 -3 -31z" />
<glyph unicode="&#x45a;" horiz-adv-x="1386" d="M18 0l197 1014h221q-18 -92 -35.5 -181.5t-33.5 -181.5h251l70 363h223l-71 -363h172q96 0 158.5 -27.5t98.5 -68.5t49 -91t13 -95q0 -59 -22.5 -127t-74.5 -124.5t-137 -93t-208 -36.5q-86 0 -151.5 24.5t-108.5 69.5t-61.5 107.5t-6.5 140.5l21 133h-254l-90 -463h-220 zM782 348q-10 -63 21.5 -109t109.5 -46q51 0 86 15t57.5 38.5t33 52.5t10.5 57q0 47 -35 77t-107 30h-157z" />
<glyph unicode="&#x45b;" horiz-adv-x="942" d="M23 -2l225 1163h-117l29 150h116l35 178h226l-35 -178h340l-29 -150h-342l-47 -246l6 -2q51 53 114.5 82t123.5 29q133 0 190 -81t35 -220q0 -2 -8 -45t-20.5 -109.5t-27 -147.5t-29.5 -160t-28.5 -149.5t-21.5 -113.5h-228q8 39 20.5 101.5l27 135t29 147.5t26.5 135.5 t19 100t7 41.5q10 66 -13 107t-93 41q-68 0 -117 -46t-65 -122l-125 -641h-223z" />
<glyph unicode="&#x45c;" horiz-adv-x="907" d="M16 0l195 1012h223l-80 -412h74q25 0 49.5 4t48 19.5t47 45t45.5 79.5l121 264h228l-138 -295q-35 -74 -81 -124t-105 -67q66 -16 90.5 -69.5t28.5 -128.5l26 -328h-215l-14 260q-6 98 -44 127t-97 29h-101l-79 -416h-222zM455 1169l239 377l189 -76l-310 -358z" />
<glyph unicode="&#x45e;" horiz-adv-x="823" d="M-113 -227q49 6 92.5 19t83 40t74.5 69t68 105q-4 43 -13.5 123t-20.5 178.5t-23.5 206t-24.5 204.5t-21.5 175t-15.5 119h236q4 -53 9 -122t10 -132.5t8 -112.5t3 -63q4 -72 7 -158t-7 -182h6q41 76 81 169t77 193.5t72 204.5t65 203h238q-63 -176 -128 -340 t-130.5 -311.5t-132 -274.5t-131.5 -225q-94 -141 -216 -215t-262 -68zM264 1444h174q-4 -23 1 -47.5t17.5 -45t35 -34.5t53.5 -14q33 0 59.5 13t47 34.5t33.5 46t17 47.5h183q-12 -53 -39 -106.5t-71 -98.5t-106.5 -72.5t-144.5 -27.5t-135 28.5t-84 72.5t-39 98.5 t-2 105.5z" />
<glyph unicode="&#x45f;" horiz-adv-x="944" d="M78 283q0 4 8 47t20.5 109.5t29 148.5t31.5 162.5t28.5 150.5t21.5 115h225q-8 -39 -20 -101.5t-26.5 -136t-29 -147.5t-25.5 -135.5t-18.5 -101.5t-7.5 -42q-12 -68 12.5 -108.5t98.5 -40.5q66 0 114 48t62 124l125 641h223l-196 -1016h-226l23 100h-6 q-49 -55 -113.5 -82.5t-124.5 -27.5q-135 0 -193.5 81t-35.5 212zM238 -395l71 313l201 29l-90 -342h-182z" />
<glyph unicode="&#x490;" horiz-adv-x="937" d="M47 0l272 1425h570l53 246h195l-93 -463h-536l-232 -1208h-229z" />
<glyph unicode="&#x491;" horiz-adv-x="792" d="M20 0q49 256 98.5 507t96.5 507h473l47 227h183q-20 -106 -41 -212.5t-43 -213.5h-439q-39 -205 -77.5 -407.5t-79.5 -407.5h-218z" />
<glyph unicode="&#x4d9;" horiz-adv-x="892" d="M63 250q0 92 37 159.5t101.5 111.5t150.5 66.5t185 22.5q23 0 45 -1t47 -3q10 47 10 88q-2 53 -29.5 88t-87.5 35q-47 0 -98 -24.5t-92 -77.5q-8 4 -33 19.5t-53.5 32.5t-53 32.5t-32.5 19.5q63 104 163.5 156.5t223.5 52.5q164 0 239.5 -87t75.5 -245 q0 -117 -22.5 -241.5t-77.5 -228t-145.5 -170t-225.5 -66.5q-162 0 -245 72.5t-83 187.5zM291 283q0 -39 29.5 -63.5t82.5 -24.5q78 0 123 62t70 167q-20 4 -40.5 4h-39.5q-111 -2 -168 -43t-57 -102z" />
<glyph unicode="&#x2000;" horiz-adv-x="929" />
<glyph unicode="&#x2001;" horiz-adv-x="1858" />
<glyph unicode="&#x2002;" horiz-adv-x="929" />
<glyph unicode="&#x2003;" horiz-adv-x="1858" />
<glyph unicode="&#x2004;" horiz-adv-x="619" />
<glyph unicode="&#x2005;" horiz-adv-x="464" />
<glyph unicode="&#x2006;" horiz-adv-x="309" />
<glyph unicode="&#x2007;" horiz-adv-x="309" />
<glyph unicode="&#x2008;" horiz-adv-x="232" />
<glyph unicode="&#x2009;" horiz-adv-x="371" />
<glyph unicode="&#x200a;" horiz-adv-x="103" />
<glyph unicode="&#x2010;" horiz-adv-x="794" d="M106 455l39 202h607l-39 -202h-607z" />
<glyph unicode="&#x2011;" horiz-adv-x="794" d="M106 455l39 202h607l-39 -202h-607z" />
<glyph unicode="&#x2012;" horiz-adv-x="794" d="M106 455l39 202h607l-39 -202h-607z" />
<glyph unicode="&#x2013;" horiz-adv-x="1026" d="M47 461l39 196h946l-39 -196h-946z" />
<glyph unicode="&#x2014;" horiz-adv-x="2074" d="M39 461l39 196h1990l-38 -196h-1991z" />
<glyph unicode="&#x2018;" horiz-adv-x="524" d="M225 934l51 262l191 277h123l-117 -269h59l-53 -270h-254z" />
<glyph unicode="&#x2019;" horiz-adv-x="524" d="M225 934l117 268h-59l53 273h254l-51 -265l-189 -276h-125z" />
<glyph unicode="&#x201a;" horiz-adv-x="501" d="M-8 -274l117 268h-58l51 270h254l-51 -262l-188 -276h-125z" />
<glyph unicode="&#x201c;" horiz-adv-x="733" d="M174 934l51 262l189 277h125l-117 -269h59l-53 -270h-254zM500 934l51 262l188 277h123l-117 -269h60l-53 -270h-252z" />
<glyph unicode="&#x201d;" horiz-adv-x="733" d="M178 934l119 268h-59l53 273h254l-51 -265l-189 -276h-127zM506 934l117 268h-60l53 273h252l-51 -265l-188 -276h-123z" />
<glyph unicode="&#x201e;" horiz-adv-x="823" d="M-8 -272l117 268h-58l53 270h252l-51 -262l-188 -276h-125zM315 -272l117 268h-57l53 270h252l-51 -262l-189 -276h-125z" />
<glyph unicode="&#x2020;" horiz-adv-x="876" d="M100 772l39 193h299l86 440h209l-86 -440h299l-37 -193h-299l-217 -1112h-209l217 1112h-301z" />
<glyph unicode="&#x2021;" horiz-adv-x="884" d="M-4 221l37 193h303l70 358h-304l37 193h303l86 440h211l-86 -440h303l-36 -193h-304l-69 -358h303l-39 -193h-301l-109 -561h-213l109 561h-301z" />
<glyph unicode="&#x2022;" horiz-adv-x="907" d="M176 561q0 59 22.5 112.5t62.5 93.5t93.5 63.5t114.5 23.5t114.5 -23.5t93.5 -63.5t63.5 -93t23.5 -113q0 -61 -23.5 -114.5t-63.5 -93.5t-93.5 -63.5t-114.5 -23.5t-114.5 23.5t-93.5 63.5t-62.5 93.5t-22.5 114.5z" />
<glyph unicode="&#x2026;" horiz-adv-x="1648" d="M53 0l51 266h248l-51 -266h-248zM618 0l52 266h250l-52 -266h-250zM1180 0l51 266h248l-52 -266h-247z" />
<glyph unicode="&#x202f;" horiz-adv-x="371" />
<glyph unicode="&#x2030;" horiz-adv-x="2017" d="M162 815l78 391q20 106 88.5 167t177.5 61q53 0 98 -17.5t77 -49.5t46 -77t4 -98l-74 -399q-23 -106 -86 -167t-180 -61q-57 0 -104 18.5t-79 51.5t-44 79t-2 101zM184 -35l1047 1495h166l-1049 -1495h-164zM330 805q-6 -35 11 -61.5t58 -26.5q39 0 59.5 23.5t26.5 54.5 l76 397q8 35 -10.5 62.5t-56.5 27.5q-35 0 -58.5 -21.5t-29.5 -56.5zM852 242l78 391q20 106 88.5 166.5t177.5 60.5q53 0 98 -17.5t77 -49t46.5 -76.5t3.5 -99l-73 -399q-23 -106 -86.5 -166.5t-180.5 -60.5q-57 0 -104 18.5t-79 51t-44 78.5t-2 102zM1020 231 q-6 -35 11.5 -61.5t58.5 -26.5q39 0 59 23.5t27 54.5l75 397q8 35 -10 63t-57 28q-35 0 -58.5 -21.5t-29.5 -56.5zM1409 242l78 391q20 106 89 166.5t177 60.5q53 0 98 -17.5t77 -49t46.5 -76.5t3.5 -99l-73 -399q-23 -106 -86.5 -166.5t-180.5 -60.5q-57 0 -104 18.5 t-79 51t-44 78.5t-2 102zM1577 231q-6 -35 11.5 -61.5t58.5 -26.5q39 0 59 23.5t27 54.5l75 397q8 35 -10 63t-57 28q-35 0 -58.5 -21.5t-29.5 -56.5z" />
<glyph unicode="&#x2039;" horiz-adv-x="688" d="M76 479l334 402h217l-336 -406l174 -399h-211z" />
<glyph unicode="&#x203a;" horiz-adv-x="669" d="M23 76l337 405l-174 402h211l176 -404l-331 -403h-219z" />
<glyph unicode="&#x2044;" horiz-adv-x="356" d="M-393 -35l1046 1495h166l-1048 -1495h-164z" />
<glyph unicode="&#x205f;" horiz-adv-x="464" />
<glyph unicode="&#x20ac;" d="M55 535q6 33 12.5 64.5t14.5 64.5h76l18 94h-78q8 35 13.5 66.5t13.5 64.5h76l20 90q18 92 50 174t84.5 145.5t132 100.5t194.5 37q80 0 148.5 -25t117.5 -68t79 -102t34 -131l-225 -68q-6 70 -47 122.5t-117 52.5q-51 0 -87 -19.5t-61.5 -52.5t-42 -76t-26.5 -88 l-21 -92h332q-4 -33 -11 -64.5t-12 -66.5h-333l-19 -94h334l-27 -129h-331q-6 -29 -12.5 -57.5t-10.5 -57.5q-4 -18 -6 -36.5t-2 -37.5q0 -59 30.5 -100t116.5 -41q72 0 129.5 46t87.5 128q55 -16 110.5 -32.5t111.5 -33.5q-49 -143 -162 -234t-287 -91q-98 0 -167.5 25.5 t-115 69.5t-66 106.5t-20.5 136.5q0 41 6.5 80.5t14.5 85.5q4 10 4 21t4 22h-78z" />
<glyph unicode="&#x2122;" horiz-adv-x="1665" d="M80 1274v151h588v-151h-213v-678h-162v678h-213zM762 596v827h178l109 -247q29 -59 52 -118t50 -118h2q51 123 103.5 241.5t105.5 241.5h176v-827h-162v491h-4l-55 -131q-29 -66 -56.5 -129t-56.5 -129h-112q-20 49 -43 101.5t-58 130.5q-16 41 -32.5 80t-34.5 80h-4 v-494h-158z" />
<glyph unicode="&#x2202;" horiz-adv-x="927" d="M45 315q0 137 42 251t110.5 195t154.5 125t174 44q57 0 108.5 -19.5t98.5 -66.5q12 74 12 135q0 158 -63.5 230.5t-173.5 72.5q-35 0 -67.5 -5t-73.5 -17q10 47 19 95t20 95q92 25 167 25q104 0 176 -37t117 -102.5t65.5 -153.5t20.5 -191q-4 -242 -59 -430t-140 -317 t-190.5 -196.5t-212.5 -67.5q-141 0 -223 87t-82 248zM256 358q0 -92 37 -137t98 -45q57 0 104.5 40t85 102.5t66.5 140.5t47 151q-47 78 -97 104.5t-97 26.5q-53 0 -98.5 -37.5t-78 -95t-50 -125t-17.5 -125.5z" />
<glyph unicode="&#x220f;" horiz-adv-x="1112" d="M12 -164l312 1589h854l-310 -1589h-233l268 1374h-387l-268 -1374h-236z" />
<glyph unicode="&#x2211;" horiz-adv-x="878" d="M-63 -162l40 211l371 586l-145 588l41 202h764l-43 -215h-498l145 -573l-364 -578h518l-43 -221h-786z" />
<glyph unicode="&#x221a;" horiz-adv-x="1030" d="M104 764l336 108l70 -643q20 57 62 167t94.5 246t108.5 285.5t107.5 286t93.5 246t62 166.5h201l-702 -1788h-181l-96 805l-129 -41q-2 6 -6 29.5t-8 51.5t-8.5 51.5t-4.5 29.5z" />
<glyph unicode="&#x221e;" horiz-adv-x="1425" d="M90 561q0 63 24.5 121.5t66.5 102.5t99 70t123 26q47 0 92.5 -17.5t86.5 -44t74.5 -61.5t60.5 -68q63 86 138 138.5t185 52.5q66 0 120 -23.5t94 -66.5t61.5 -101.5t21.5 -128.5q0 -66 -23.5 -123t-65.5 -102t-99 -70.5t-123 -25.5q-49 0 -92 16t-82 43t-73 60.5 t-64 70.5q-33 -39 -67 -73.5t-71.5 -60.5t-84 -41t-101.5 -15q-66 0 -120 23.5t-95 65.5t-63.5 101t-22.5 131zM264 561q0 -66 40 -108.5t95 -42.5q63 0 115.5 44t91.5 105q-16 27 -38.5 53.5t-48 48t-55.5 35t-61 13.5q-55 0 -97 -44t-42 -104zM821 561q49 -59 98.5 -105 t108.5 -46q55 0 96 45t41 106q0 63 -40 105.5t-93 42.5q-59 0 -110.5 -42t-100.5 -106z" />
<glyph unicode="&#x222b;" horiz-adv-x="647" d="M-174 -274l51 149q29 -6 49.5 -9t38.5 -3q31 0 57.5 11t51 44t48 91.5t46.5 150.5q27 111 59.5 281.5t77.5 408.5q35 180 69 317.5t82 229.5t117.5 138t174.5 46q29 0 72.5 -7t76.5 -22l-49 -157q-29 8 -52.5 10t-39.5 2q-35 0 -63.5 -13.5t-52.5 -46t-44.5 -90 t-40.5 -145.5q-2 -12 -12.5 -64.5t-24.5 -125t-30.5 -157.5t-32 -161t-25.5 -132t-14 -75q-35 -197 -73 -332t-89 -216.5t-118.5 -117.5t-162.5 -36q-29 0 -70.5 7t-76.5 24z" />
<glyph unicode="&#x2248;" d="M8 377q133 205 301 205q45 0 85 -17.5t77 -38t69.5 -38t67.5 -17.5q41 0 78 22.5t84 81.5l115 -81q-63 -111 -134 -160t-151 -49q-43 0 -83 17t-79 36.5t-75.5 37t-73.5 17.5q-41 0 -78 -21.5t-92 -78.5zM68 721q66 106 140.5 155.5t160.5 49.5q45 0 85 -17.5t75.5 -38 t68.5 -38t68 -17.5q41 0 78.5 23.5t84.5 81.5l113 -82q-63 -111 -133 -159t-152 -48q-43 0 -82.5 17.5t-77.5 37t-75 36.5t-74 17q-43 0 -80 -22.5t-92 -79.5q-29 23 -54.5 43t-53.5 41z" />
<glyph unicode="&#x2260;" d="M-14 158l149 168h-135l37 180h260l180 205h-401l35 182h526l137 154h187l-136 -154h144l-35 -182h-270l-183 -205h414l-37 -180h-539l-147 -168h-186z" />
<glyph unicode="&#x2264;" d="M-57 0q10 47 18 92t16 92h863q-10 -47 -18.5 -92t-16.5 -92h-862zM51 600q8 41 15.5 82t17.5 82l926 326l-39 -201q-156 -53 -310.5 -103.5t-308.5 -101.5q135 -53 269.5 -101t269.5 -100l-39 -204q-201 82 -400.5 161.5t-400.5 159.5z" />
<glyph unicode="&#x2265;" d="M-27 0l33 184h862q-8 -47 -16 -92t-18 -92h-861zM23 279l38 202q154 51 309.5 98.5t309.5 102.5q-135 53 -270.5 103.5t-270.5 101.5l41 203l801 -326q-10 -41 -17.5 -82t-15.5 -82q-233 -82 -463.5 -161t-461.5 -160z" />
<glyph unicode="&#x25ca;" horiz-adv-x="1085" d="M96 649q18 37 47 92.5t62 120t69.5 133t69.5 133t61.5 120t47.5 91.5h155l353 -690l-355 -688h-153zM305 651q20 -39 51 -100.5t64 -126t63.5 -125.5t48.5 -100q20 41 50 101t62 123.5t60.5 124t49.5 101.5l-226 455q-20 -41 -49.5 -101.5t-61.5 -125t-61.5 -125 t-50.5 -101.5z" />
<glyph unicode="&#x25fc;" horiz-adv-x="1013" d="M0 0v1014h1014v-1014h-1014z" />
</font>
</defs>
</svg>
